<?xml version="1.0" encoding="utf-8"?>
<!-- Generator: Adobe Illustrator 25.0.0, SVG Export Plug-In . SVG Version: 6.00 Build 0)  -->
<svg version="1.1" id="图层_1" xmlns="http://www.w3.org/2000/svg" xmlns:xlink="http://www.w3.org/1999/xlink" x="0px" y="0px"
	 viewBox="0 0 66.3 15.8" style="enable-background:new 0 0 66.3 15.8;" xml:space="preserve">
<style type="text/css">
	.st0{fill-rule:evenodd;clip-rule:evenodd;fill:#040000;}
	.st1{fill:#D8B99A;}
	.st2{fill:#729496;}
	.st3{fill:#2F6465;}
	.st4{fill:#C6997A;}
</style>
<g>
	<g>
		<path class="st0" d="M48.1,2.7l5,0l0,1l-4.8,0l0,0.8l4.8,0l0,1.1l-5.3,0l0,0.8l3.1,0c0,1.3,0.1,0.7-0.5,1.3
			c-0.1,0.2-0.3,0.3-0.4,0.4c-0.1,0.1-0.1,0.1-0.2,0.2c-0.1,0.1-0.1,0.2-0.2,0.2l-0.6-1.3l-0.9,0l0.8,2c-0.1,0.2-0.5,0.5-0.7,0.7
			c-0.2,0.2-0.2,0.1-0.2,0.5c0,0.2,0,0.5,0,0.7c0.2-0.2,0.5-0.4,0.7-0.7c0.4-0.4,1-1,1.4-1.4c0.2-0.2,0.6-0.6,0.7-0.7l0,2.1l-1,0
			l0.3,0.7l1.6,0l0-2.5c0.2,0.1,2.3,2.1,2.6,2.2c0-0.2,0-0.4,0-0.6c0-0.6,0-0.3-0.5-0.8c-0.1-0.1-0.2-0.2-0.3-0.3l0.8-1.9l-0.9,0
			c-0.1,0.2-0.2,0.5-0.3,0.7c-0.1,0.2-0.2,0.6-0.3,0.7L52,7.9c-0.3-0.3-0.2-0.1-0.2-0.6c0-0.3,0-0.6,0-0.8l2.7,0l0-0.8l-0.4,0L54,2
			l-5.9,0L48.1,2.7z"/>
		<path class="st0" d="M26.3,2.7l0-1l-0.9,0l0,1l-4.5,0l0,7.1l4.5,0l0,1.4l0.9,0l0-1.4l4.4,0l0-7.1L26.3,2.7z M25.4,9l-3.6,0l0-5.6
			h3.6L25.4,9z M29.8,9l-3.5,0l0-5.6l3.5,0L29.8,9z"/>
		<polygon class="st0" points="32.5,8.8 33.5,8.8 33.5,2.9 36.2,2.9 36.2,8.8 37.1,8.8 37.1,2.1 32.5,2.1 		"/>
		<polygon class="st0" points="41.1,2.9 37.8,2.9 37.8,3.6 41.1,3.6 41.1,10.5 39.6,10.5 39.9,11.2 42,11.2 42,3.6 42.6,3.6 
			42.6,2.9 42,2.9 42,1.7 41.1,1.7 		"/>
		<path class="st0" d="M56.7,3.3l-0.9,0l0,0.8l0.9,0l0,2.9c-0.1,0.1-0.8,0.3-0.9,0.4l0,0.9c0.2,0,0.7-0.3,0.9-0.3l0,2.5l-0.9,0
			l0.3,0.7l1.5,0l0-3.6l0.9-0.4l0-0.8l-0.9,0.4l0-2.7l0.9,0l0-0.8l-0.9,0l0-1.6l-0.9,0L56.7,3.3z"/>
		<path class="st0" d="M59.6,5.1l6,0c0.1,0,0,0,0.1-0.1l0.5-0.8l-0.4-0.8c-0.1,0.1-0.6,0.9-0.7,0.9l-4.5,0l0-0.8l5.1-1.1l0-0.8
			l-5.1,1l0-1.1l-0.9,0L59.6,5.1z"/>
		<path class="st0" d="M34.4,9.2c-0.5,0.3-1.3,0.7-1.8,1.1l0,0.9c0.3-0.1,2.1-1.2,2.2-1.2c0.1,0,2.1,1.1,2.3,1.2l0-0.9l-1.8-1l0-5.4
			l-0.9,0L34.4,9.2z"/>
		<path class="st0" d="M44,5.2l1.8,0c-0.1,0.2-0.3,0.5-0.4,0.7l-1.3,2l2.9,0l0-0.8l-1.3,0l1.9-3l-1,0l-0.3,0.4l-1.1,0l1-2.7l-0.9,0
			L44,5.2z"/>
		<polygon class="st0" points="37.6,11.1 38.5,11.1 40.1,4.4 39.3,4.4 		"/>
		<path class="st0" d="M59.5,6.5l0,4.7l6.3,0l0-4.7L59.5,6.5z M60.5,7.2l4.5,0l0,1.2l-4.5,0L60.5,7.2z M60.5,10.5L60.5,10.5l0-1.3
			l4.4,0l0.1,0l0,1.3L60.5,10.5z"/>
		<polygon class="st0" points="41.5,15.2 43.8,15.2 43.8,13.6 42.4,13.6 42.4,13.9 43.4,13.9 43.4,14.9 41.9,14.9 41.9,12.7 
			43.7,12.7 43.7,12.4 41.5,12.4 		"/>
		<polygon class="st0" points="44.1,10.1 44.1,10.9 46.9,10.1 47,9.2 		"/>
		<polygon class="st0" points="21.3,12.7 22.8,12.7 21.2,15.2 23.5,15.2 23.5,14.9 21.8,14.9 23.4,12.4 21.3,12.4 		"/>
		<polygon class="st0" points="24,15.2 24.4,15.2 24.4,13.6 25.5,13.6 25.5,15.2 25.8,15.2 25.9,13.3 24.4,13.3 24.4,12.8 
			24.1,12.8 		"/>
		<polygon class="st0" points="51,15.2 51.3,15.2 51.3,13.6 52.4,13.6 52.4,15.2 52.8,15.2 52.8,13.2 51,13.2 		"/>
		<polygon class="st0" points="56.9,15.2 57.3,15.2 57.3,13.5 58.4,13.5 58.4,15.2 58.7,15.2 58.7,13.2 56.9,13.2 		"/>
		<polygon class="st0" points="28.8,15.2 29.1,15.2 29.1,13.5 30.2,13.5 30.2,15.2 30.5,15.2 30.5,13.2 28.8,13.2 		"/>
		<polygon class="st0" points="33.6,15.2 35.4,15.2 35.4,14.9 33.9,14.9 33.9,13.5 35.4,13.5 35.4,13.2 33.6,13.2 		"/>
		<path class="st0" d="M28.2,13.2L28.2,13.2l-1.8,0l0,2l0,0l1.8,0L28.2,13.2z M27.8,14.9l-1.1,0v-1.3l1.1,0V14.9z"/>
		<path class="st0" d="M61.1,12.8l-0.4,0l0,0.4l-1.5,0l0,1.9l0,0l1.8,0L61.1,12.8z M60.6,14.9l-1,0l0,0l0-1.3l1.1,0l0,0l0,1.3
			L60.6,14.9z"/>
		<polygon class="st0" points="44.4,15.2 44.7,15.2 44.7,13.6 45.6,13.5 45.6,13.2 44.4,13.2 		"/>
		<path class="st0" d="M31.1,13.2l0,1.4l1.5,0l0,0.6l-1.5,0v0.3l1.9,0l0-2.3L31.1,13.2z M32.7,14.3h-0.2l-0.8,0l-0.1,0l0-0.2l0-0.6
			l1.2,0l0,0L32.7,14.3z"/>
		<path class="st0" d="M36.2,13.2l0,0.3l1.2,0V14l-1.5,0v1.2l1.8,0l0-2L36.2,13.2z M37.3,14.9l-1.1,0l0-0.5l1.1,0L37.3,14.9z"/>
		<path class="st0" d="M46.4,14.9l0-0.5l1.6,0l0-1.1l-1.9,0l0,2l1.9,0l0-0.3L46.4,14.9z M47.6,13.5l0,0.5l-1.2,0l0-0.4l0,0
			L47.6,13.5z"/>
		<path class="st0" d="M48.9,14.9l0-0.5l1.6,0l0-1.1l-1.9,0l0,2l1.9,0l0-0.3L48.9,14.9z M50.1,13.5l0,0.5l-1.2,0l0-0.4l0,0
			L50.1,13.5z"/>
		<path class="st0" d="M62,14.9l0-0.6l1.6,0l0-1.1l-1.9,0l0,2l1.9,0l0-0.3L62,14.9z M63.2,13.5l0,0.5L62,14l0-0.5L63.2,13.5z"/>
		<g>
			<polygon class="st0" points="38.2,13.2 38.2,13.5 38.5,13.5 38.5,15.2 38.9,15.2 38.9,13.2 38.2,13.2 38.2,13.2 			"/>
			<polygon class="st0" points="38.9,12.9 38.9,12.5 38.5,12.5 38.5,12.9 38.9,12.9 38.9,12.9 			"/>
		</g>
		<g>
			<polygon class="st0" points="55.6,12.4 55.6,15.2 56,15.2 56,12.4 			"/>
		</g>
		<polygon class="st0" points="65.9,13.2 65.5,13.2 64.9,13.9 64.4,13.2 64,13.2 64.7,14.2 64,15.2 64.4,15.2 64.9,14.5 65.5,15.2 
			65.9,15.2 65.2,14.2 		"/>
	</g>
	<g>
		<path class="st1" d="M0,0.8c0,0.1,0,10.6,0,11.7c0,0.1,0,0.1,0.1,0.1c0.8-0.1,9.1-1.3,15.1-8.9L16.3,4l-0.4-3.9l-3.5,2.4l1.2,0.5
			c0,0-4.5,5.6-11.9,7.6c0,0,0,0,0,0c0-1.4,0-8,0-8.3c0,0,0,0,0,0c0.4,0,10,0,10,0c0,0,0,0,0,0l2.1-1.6c0,0-13.3,0-13.5,0
			S0,0.6,0,0.8z"/>
		<path class="st2" d="M0,14.1c0,0.1,0,1.3,0,1.6c0,0,0,0,0,0c0,0,14.2,0,15.2,0c0.1,0,0.1-0.1,0.1-0.1V9.2c0,0-1.5,1.3-1.6,1.4
			c0,0,0,0,0,0c0,0,0,3.1,0,3.5c0,0,0,0,0,0l-7.3,0c0,0,5.2-2.2,9-6c0,0,0,0,0,0c0-0.7,0-2.1,0-2.1S9.7,12.6,0,14.1
			C0.1,14.1,0,14.1,0,14.1z"/>
		<path class="st3" d="M15.3,13C14.7,13,14.2,13,13.7,13c0,0.5,0,1,0,1.1c0,0,0,0,0,0l-7.3,0c0,0,1.5-0.6,3.5-1.8
			c-0.6-0.2-1.2-0.6-1.7-0.9c-2.2,1.2-5,2.2-8.1,2.6c0,0-0.1,0-0.1,0.1c0,0.1,0,1.3,0,1.6c0,0,0,0,0,0c0,0,14.2,0,15.2,0
			c0.1,0,0.1-0.1,0.1-0.1V13z"/>
		<path class="st4" d="M5.7,9c-1.2,0.6-2.6,1.2-4.1,1.6c0,0,0,0,0,0c0-1.4,0-8,0-8.3c0,0,0,0,0,0c0.1,0,0.8,0,1.8,0
			C3.4,1.5,3.4,1,3.4,0.6c-1.8,0-3.1,0-3.2,0C0,0.6,0,0.6,0,0.8c0,0.1,0,10.6,0,11.7c0,0.1,0,0.1,0.1,0.1c0.4-0.1,3.3-0.5,6.7-2.2
			C6.4,9.9,6,9.4,5.7,9z"/>
	</g>
</g>
</svg>
