<?xml version="1.0" encoding="UTF-8"?>
<svg width="808px" height="523px" viewBox="0 0 808 523" version="1.1" xmlns="http://www.w3.org/2000/svg" xmlns:xlink="http://www.w3.org/1999/xlink">
    <title>编组 4</title>
    <defs>
        <linearGradient x1="12.1454403%" y1="46.8285276%" x2="96.6161596%" y2="54.7755654%" id="linearGradient-1">
            <stop stop-color="#A9C9FF" offset="0%"></stop>
            <stop stop-color="#CCDFFF" offset="60.1270186%"></stop>
            <stop stop-color="#BBD3FF" offset="100%"></stop>
        </linearGradient>
        <linearGradient x1="88.2087989%" y1="53.4448043%" x2="80.3340517%" y2="46.9671954%" id="linearGradient-2">
            <stop stop-color="#4AAAAC" offset="0%"></stop>
            <stop stop-color="#306465" offset="100%"></stop>
        </linearGradient>
        <linearGradient x1="88.6675954%" y1="53.2337001%" x2="79.1302981%" y2="45.871727%" id="linearGradient-3">
            <stop stop-color="#3B9A9D" offset="0%"></stop>
            <stop stop-color="#377E7F" offset="100%"></stop>
        </linearGradient>
        <linearGradient x1="88.3674569%" y1="54.2078162%" x2="80.3713572%" y2="46.4667822%" id="linearGradient-4">
            <stop stop-color="#55B2B4" offset="0%"></stop>
            <stop stop-color="#3F8485" offset="100%"></stop>
        </linearGradient>
        <linearGradient x1="88.6675954%" y1="53.2337001%" x2="79.1302981%" y2="45.871727%" id="linearGradient-5">
            <stop stop-color="#5AB9BC" offset="0%"></stop>
            <stop stop-color="#52A2A5" offset="100%"></stop>
        </linearGradient>
        <linearGradient x1="51.8301905%" y1="100%" x2="51.4487635%" y2="8.01601575%" id="linearGradient-6">
            <stop stop-color="#55B2B4" offset="0%"></stop>
            <stop stop-color="#3F8485" offset="100%"></stop>
        </linearGradient>
        <linearGradient x1="50%" y1="0%" x2="50%" y2="100%" id="linearGradient-7">
            <stop stop-color="#F8D600" offset="0%"></stop>
            <stop stop-color="#EFAC00" offset="100%"></stop>
        </linearGradient>
        <linearGradient x1="50%" y1="0%" x2="50%" y2="100%" id="linearGradient-8">
            <stop stop-color="#A95FEB" offset="0%"></stop>
            <stop stop-color="#7031D3" offset="100%"></stop>
        </linearGradient>
        <linearGradient x1="50%" y1="0%" x2="50%" y2="100%" id="linearGradient-9">
            <stop stop-color="#F8D600" offset="0%"></stop>
            <stop stop-color="#EFAC00" offset="100%"></stop>
        </linearGradient>
        <linearGradient x1="50%" y1="0%" x2="50%" y2="100%" id="linearGradient-10">
            <stop stop-color="#F8D600" offset="0%"></stop>
            <stop stop-color="#EFAC00" offset="100%"></stop>
        </linearGradient>
        <linearGradient x1="50%" y1="0%" x2="50%" y2="100%" id="linearGradient-11">
            <stop stop-color="#A95FEB" offset="0%"></stop>
            <stop stop-color="#7031D3" offset="100%"></stop>
        </linearGradient>
        <linearGradient x1="50%" y1="0%" x2="50%" y2="100%" id="linearGradient-12">
            <stop stop-color="#8AE3E3" offset="0%"></stop>
            <stop stop-color="#52C2C3" offset="100%"></stop>
        </linearGradient>
        <linearGradient x1="50%" y1="0%" x2="50%" y2="100%" id="linearGradient-13">
            <stop stop-color="#FF878F" offset="0%"></stop>
            <stop stop-color="#E52027" offset="100%"></stop>
        </linearGradient>
        <linearGradient x1="50%" y1="0%" x2="50%" y2="100%" id="linearGradient-14">
            <stop stop-color="#FF878F" offset="0%"></stop>
            <stop stop-color="#E52027" offset="100%"></stop>
        </linearGradient>
        <linearGradient x1="50%" y1="0%" x2="50%" y2="100%" id="linearGradient-15">
            <stop stop-color="#80C4FF" offset="0%"></stop>
            <stop stop-color="#4991FF" offset="100%"></stop>
        </linearGradient>
        <linearGradient x1="50%" y1="0%" x2="50%" y2="100%" id="linearGradient-16">
            <stop stop-color="#FF878F" offset="0%"></stop>
            <stop stop-color="#E52027" offset="100%"></stop>
        </linearGradient>
        <linearGradient x1="50%" y1="0%" x2="50%" y2="100%" id="linearGradient-17">
            <stop stop-color="#8AE3E3" offset="0%"></stop>
            <stop stop-color="#52C2C3" offset="100%"></stop>
        </linearGradient>
        <linearGradient x1="50%" y1="0%" x2="50%" y2="100%" id="linearGradient-18">
            <stop stop-color="#F8D600" offset="0%"></stop>
            <stop stop-color="#EFAC00" offset="100%"></stop>
        </linearGradient>
        <linearGradient x1="50%" y1="0%" x2="50%" y2="100%" id="linearGradient-19">
            <stop stop-color="#A2E418" offset="0%"></stop>
            <stop stop-color="#69C40A" offset="100%"></stop>
        </linearGradient>
        <linearGradient x1="50%" y1="0%" x2="50%" y2="100%" id="linearGradient-20">
            <stop stop-color="#80C4FF" offset="0%"></stop>
            <stop stop-color="#4991FF" offset="100%"></stop>
        </linearGradient>
        <linearGradient x1="50%" y1="0%" x2="50%" y2="100%" id="linearGradient-21">
            <stop stop-color="#788FF7" offset="0%"></stop>
            <stop stop-color="#4356ED" offset="100%"></stop>
        </linearGradient>
        <linearGradient x1="50%" y1="0%" x2="50%" y2="100%" id="linearGradient-22">
            <stop stop-color="#FF878F" offset="0%"></stop>
            <stop stop-color="#E52027" offset="100%"></stop>
        </linearGradient>
        <linearGradient x1="50%" y1="0%" x2="50%" y2="100%" id="linearGradient-23">
            <stop stop-color="#A95FEB" offset="0%"></stop>
            <stop stop-color="#7031D3" offset="100%"></stop>
        </linearGradient>
        <linearGradient x1="50%" y1="0%" x2="50%" y2="100%" id="linearGradient-24">
            <stop stop-color="#F8D600" offset="0%"></stop>
            <stop stop-color="#EFAC00" offset="100%"></stop>
        </linearGradient>
        <linearGradient x1="50%" y1="0%" x2="50%" y2="84.0409108%" id="linearGradient-25">
            <stop stop-color="#4356ED" offset="0%"></stop>
            <stop stop-color="#C5D7FB" stop-opacity="0" offset="100%"></stop>
        </linearGradient>
        <linearGradient x1="50%" y1="0%" x2="50%" y2="100%" id="linearGradient-26">
            <stop stop-color="#F8D600" offset="0%"></stop>
            <stop stop-color="#EFAC00" offset="100%"></stop>
        </linearGradient>
        <linearGradient x1="50%" y1="0%" x2="50%" y2="100%" id="linearGradient-27">
            <stop stop-color="#8AE3E3" offset="0%"></stop>
            <stop stop-color="#52C2C3" offset="100%"></stop>
        </linearGradient>
        <linearGradient x1="50%" y1="0%" x2="50%" y2="100%" id="linearGradient-28">
            <stop stop-color="#A2E418" offset="0%"></stop>
            <stop stop-color="#69C40A" offset="100%"></stop>
        </linearGradient>
        <linearGradient x1="50%" y1="0%" x2="50%" y2="100%" id="linearGradient-29">
            <stop stop-color="#FF878F" offset="0%"></stop>
            <stop stop-color="#E52027" offset="100%"></stop>
        </linearGradient>
        <linearGradient x1="50%" y1="0%" x2="50%" y2="100%" id="linearGradient-30">
            <stop stop-color="#788FF7" offset="0%"></stop>
            <stop stop-color="#4356ED" offset="100%"></stop>
        </linearGradient>
        <linearGradient x1="50%" y1="0%" x2="50%" y2="100%" id="linearGradient-31">
            <stop stop-color="#A95FEB" offset="0%"></stop>
            <stop stop-color="#7031D3" offset="100%"></stop>
        </linearGradient>
        <linearGradient x1="50%" y1="0%" x2="50%" y2="100%" id="linearGradient-32">
            <stop stop-color="#D7E7FE" offset="0%"></stop>
            <stop stop-color="#AECBFC" offset="100%"></stop>
        </linearGradient>
        <linearGradient x1="50%" y1="0%" x2="50%" y2="100%" id="linearGradient-33">
            <stop stop-color="#D7E7FE" offset="0%"></stop>
            <stop stop-color="#AECBFC" offset="100%"></stop>
        </linearGradient>
        <linearGradient x1="50%" y1="0%" x2="50%" y2="100%" id="linearGradient-34">
            <stop stop-color="#D7E7FE" offset="0%"></stop>
            <stop stop-color="#AECBFC" offset="100%"></stop>
        </linearGradient>
        <linearGradient x1="50%" y1="0%" x2="50%" y2="100%" id="linearGradient-35">
            <stop stop-color="#D7E7FE" offset="0%"></stop>
            <stop stop-color="#AECBFC" offset="100%"></stop>
        </linearGradient>
        <linearGradient x1="50%" y1="0%" x2="50%" y2="100%" id="linearGradient-36">
            <stop stop-color="#D7E7FE" offset="0%"></stop>
            <stop stop-color="#AECBFC" offset="100%"></stop>
        </linearGradient>
        <linearGradient x1="50%" y1="0%" x2="50%" y2="100%" id="linearGradient-37">
            <stop stop-color="#D7E7FE" offset="0%"></stop>
            <stop stop-color="#AECBFC" offset="100%"></stop>
        </linearGradient>
        <linearGradient x1="50%" y1="0%" x2="50%" y2="100%" id="linearGradient-38">
            <stop stop-color="#D7E7FE" offset="0%"></stop>
            <stop stop-color="#AECBFC" offset="100%"></stop>
        </linearGradient>
        <linearGradient x1="50%" y1="0%" x2="50%" y2="100%" id="linearGradient-39">
            <stop stop-color="#8AE3E3" offset="0%"></stop>
            <stop stop-color="#52C2C3" offset="100%"></stop>
        </linearGradient>
        <linearGradient x1="50%" y1="0%" x2="50%" y2="100%" id="linearGradient-40">
            <stop stop-color="#FF878F" offset="0%"></stop>
            <stop stop-color="#E52027" offset="100%"></stop>
        </linearGradient>
        <polygon id="path-41" points="0 0 18.2877029 0 18.2877029 22.8341258 0 22.8341258"></polygon>
        <path d="M7.09287111,1.65453224 C5.39620619,1.9108049 2.31988479,3.87106592 1.28700282,5.34126169 L1.28700282,5.34126169 C0.254120839,6.81295613 -0.181951811,8.62934478 0.0695713215,10.5596324 L0.0695713215,10.5596324 C0.111243793,10.8773505 0.173752501,11.1860767 0.251144234,11.4843121 L0.251144234,11.4843121 C1.12031293,14.7828859 4.16091506,16.9304807 7.33844103,16.4269274 L7.33844103,16.4269274 C11.194633,15.8169685 22.7557673,13.8761902 22.7557673,13.8761902 L22.7557673,13.8761902 C24.943572,8.23069843 21.6112626,0 21.6112626,0 L21.6112626,0 L7.09287111,1.65453224 Z" id="path-43"></path>
        <linearGradient x1="42.0310622%" y1="37.6166129%" x2="117.115691%" y2="131.296208%" id="linearGradient-45">
            <stop stop-color="#FFAE00" offset="0%"></stop>
            <stop stop-color="#FF7700" offset="100%"></stop>
        </linearGradient>
        <path d="M3.15301222,52.0298155 C2.3506706,58.912262 3.98363674,96.198841 3.70229618,100.5 L3.70229618,100.5 C6.20756693,99.4964949 15.0720276,98.2443337 16.4742647,98.4056641 L16.4742647,98.4056641 C16.6394965,92.3624321 20.2076094,73.7087819 21.5517921,53.6342396 L21.5517921,53.6342396 C23.0478094,31.3084712 22.3258508,7.69797941 22.3258508,7.69797941 L22.3258508,7.69797941 L0.0404031004,0 C-0.505903712,0.679364074 4.69517532,38.8169983 3.15301222,52.0298155" id="path-46"></path>
        <linearGradient x1="49.9989187%" y1="1.87199673%" x2="49.9989187%" y2="115.821326%" id="linearGradient-48">
            <stop stop-color="#3D00A7" offset="0%"></stop>
            <stop stop-color="#005DFF" offset="100%"></stop>
        </linearGradient>
        <path d="M0.000917845101,3.24550841 C-0.0282127237,3.90145213 0.635964244,4.4473282 2.00801403,4.72100994 L2.00801403,4.72100994 C4.74628749,5.26986081 7.49621319,5.06459951 10.3277045,3.60397199 L10.3277045,3.60397199 C11.2030781,3.15180216 11.8119069,2.68624573 12.1527346,2.24448771 L12.1527346,2.24448771 C12.2576046,2.10913425 12.3391702,1.98121778 12.3959748,1.85330132 L12.3959748,1.85330132 C12.4600621,1.71199825 12.4921057,1.57366998 12.4979318,1.44277872 L12.4979318,1.44277872 C12.506671,1.23008041 12.4950188,0.980197086 12.3158658,0.855255424 L12.3158658,0.855255424 C11.4361226,0.240958919 10.3160522,0 9.10859017,0 L9.10859017,0 C5.04924541,0 0.0227657717,2.73681736 0.000917845101,3.24550841" id="path-49"></path>
        <linearGradient x1="49.9997637%" y1="-1530.19517%" x2="49.9997637%" y2="332.463884%" id="linearGradient-51">
            <stop stop-color="#3D00A7" offset="0%"></stop>
            <stop stop-color="#005DFF" offset="100%"></stop>
        </linearGradient>
        <path d="M3.79090341,1.999941 C3.79090341,1.999941 6.84616986,37.698003 4.67633743,50.7639893 L4.67633743,50.7639893 C3.54915175,57.5690983 0.591772481,94.6402761 0,100 L0,100 C2.54358347,99.1357187 13.8792152,96.7891803 15.2659502,97.0207369 L15.2659502,97.0207369 C16.2240581,84.3426448 28.5,0 28.5,0 L28.5,0 L3.79090341,1.999941 Z" id="path-52"></path>
        <linearGradient x1="50.001021%" y1="-9.17112357%" x2="50.001021%" y2="105.02332%" id="linearGradient-54">
            <stop stop-color="#3D00A7" offset="0%"></stop>
            <stop stop-color="#005DFF" offset="100%"></stop>
        </linearGradient>
        <path d="M6.1163948,0.291040227 C5.5876874,0.38155513 5.05750728,0.492958088 4.54058167,0.621071489 L4.54058167,0.621071489 C4.46694554,0.640567007 4.38889125,0.661455062 4.31672784,0.680950579 L4.31672784,0.680950579 C4.03396511,0.753362502 3.75709328,0.831344572 3.49200322,0.913504253 L3.49200322,0.913504253 C2.84842346,1.11263704 2.24755267,1.33405042 1.72179072,1.57913693 L1.72179072,1.57913693 C0.561285349,2.11944127 -0.0116037212,2.65417547 0.000178059159,3.08586193 L0.000178059159,3.08586193 C0.0134325621,3.51337078 0.611357916,3.83643936 1.79395412,3.954805 L1.79395412,3.954805 C4.15325564,4.18735867 7.95582526,3.49944541 10.2783087,2.42022926 L10.2783087,2.42022926 C10.99847,2.08741292 11.4918321,1.75598912 11.7539767,1.4538086 L11.7539767,1.4538086 C11.8364492,1.36050862 11.8968308,1.27277879 11.9365943,1.1864415 L11.9365943,1.1864415 C11.9822487,1.09035645 12.0013941,1.00123408 12,0.91489679 L12,0.91489679 C11.9955032,0.778428167 11.9365943,0.654492377 11.8114129,0.541696882 L11.8114129,0.541696882 C11.6980132,0.438649146 11.5360138,0.346741706 11.322469,0.270152173 L11.322469,0.270152173 C11.27976,0.253441729 11.2385238,0.240908896 11.189924,0.226983526 L11.189924,0.226983526 C10.9307248,0.143431308 10.5993622,0.0863372923 10.2061453,0.0445611831 L10.2061453,0.0445611831 C9.8983463,0.0153179067 9.56403828,0 9.21353031,0 L9.21353031,0 C8.26951516,0 7.19590042,0.104440273 6.1163948,0.291040227" id="path-55"></path>
        <linearGradient x1="50.0033168%" y1="-2517.28387%" x2="50.0033168%" y2="196.526031%" id="linearGradient-57">
            <stop stop-color="#3D00A7" offset="0%"></stop>
            <stop stop-color="#005DFF" offset="100%"></stop>
        </linearGradient>
        <path d="M4.42519294,9.09344616 C3.99951421,19.2530612 -3.65380365,24.0641115 2.19000883,44.5 L2.19000883,44.5 L39.6349047,32.3955865 C40.794768,23.5044467 39.467303,12.5799071 31.6093034,2.39371163 L31.6093034,2.39371163 C30.3189184,0.723577236 27.4088778,0 23.9515359,0 L23.9515359,0 C15.8117281,0 4.6372907,4.00920856 4.42519294,9.09344616" id="path-58"></path>
        <linearGradient x1="49.9998878%" y1="58.1016121%" x2="49.9998878%" y2="316.774468%" id="linearGradient-60">
            <stop stop-color="#3D00A7" offset="0%"></stop>
            <stop stop-color="#005DFF" offset="100%"></stop>
        </linearGradient>
        <path d="M21.743602,0.275736233 C13.1322007,1.32117468 0.958020011,10.2405783 0.0603234332,19.600865 L0.0603234332,19.600865 C-0.476230843,25.1657235 2.67971066,29.8871536 5.03524289,34.5215866 L5.03524289,34.5215866 C10.8253121,45.904922 7.09301698,64.0887682 7.09301698,64.0887682 L7.09301698,64.0887682 C15.4847848,71.2328433 38.975249,63.5535155 42,58.9131843 L42,58.9131843 C40.0188765,46.7955353 34.9437216,33.9715887 38.5846257,30.6583303 L38.5846257,30.6583303 C46.0108906,23.9050044 36.1657093,17.0882738 34.3054579,9.68025867 L34.3054579,9.68025867 C32.6559957,3.11862104 32.1179674,0 25.6498351,0 L25.6498351,0 C24.5354531,0 23.2456592,0.0928950947 21.743602,0.275736233" id="path-61"></path>
        <linearGradient x1="49.9979637%" y1="7.37935304%" x2="49.9979637%" y2="78.4725929%" id="linearGradient-63">
            <stop stop-color="#FFAE00" offset="0%"></stop>
            <stop stop-color="#FF7700" offset="100%"></stop>
        </linearGradient>
        <path d="M7.28185604,5.13431441 C6.57306733,8.26370329 1.29944597,22.3261098 0.0335434987,28.073367 L0.0335434987,28.073367 C0.0102088909,28.1791988 0,28.2820909 0,28.384983 L0,28.384983 L0,28.4026216 C0.0204177818,30.0180272 2.79431928,31.2703707 4.21189671,32.0464709 L4.21189671,32.0464709 C6.30180252,33.1885729 8.73151855,33.7236116 10.6347475,33.9705526 L10.6347475,33.9705526 C12.4708895,34.2086743 14.196192,32.9813188 14.6760099,31.0616467 L14.6760099,31.0616467 L19.8592096,10.3480027 C20.2661069,8.59295793 19.7454534,4.86679502 18.8820729,3.31900428 L18.8820729,3.31900428 C18.017234,1.76680387 16.6448674,0.671738244 14.9181064,0.205784145 L14.9181064,0.205784145 C14.6366327,0.129350034 14.3537006,0.0734943374 14.0722269,0.0411568289 L14.0722269,0.0411568289 C13.8432561,0.0146988675 13.6142852,0.00146988675 13.3882312,0 L13.3882312,0 C10.5428675,0 7.97460221,2.09164884 7.28185604,5.13431441" id="path-64"></path>
        <linearGradient x1="49.99963%" y1="-22.7654153%" x2="49.99963%" y2="117.638113%" id="linearGradient-66">
            <stop stop-color="#FFAE00" offset="0%"></stop>
            <stop stop-color="#FF7700" offset="100%"></stop>
        </linearGradient>
        <polygon id="path-67" points="0 0 39.5 0 39.5 64.5 0 64.5"></polygon>
        <polygon id="path-69" points="0 0 28.5 0 28.5 12.8572274 0 12.8572274"></polygon>
        <linearGradient x1="51.3496028%" y1="100%" x2="50.7619419%" y2="0%" id="linearGradient-71">
            <stop stop-color="#8EA9ED" offset="0%"></stop>
            <stop stop-color="#476FCF" offset="100%"></stop>
        </linearGradient>
        <path d="M32.050396,144.914941 C31.5552216,148.194318 34.8549736,189.865846 35.5659933,196.637858 C36.3320324,203.95502 35.5490643,237.824965 35.5490643,237.824965 L56.4423209,237.443642 C58.1874228,233.072553 51.3565552,204.803817 52.6925386,196.163323 C53.8888574,188.421056 51.3255186,178.341422 51.5117381,169.295596 C51.695136,160.246945 51.6165403,142.238458 55.7853164,136.141529 C59.7114429,130.396265 57.2214872,115.537545 57.2214872,115.537545 C57.2214872,115.537545 53.0488256,110.912864 49.8012714,108.905976 C48.3651245,108.017635 53.3245561,114.728293 52.0111448,114.728293 C50.4875312,114.728293 48.9413455,115.140686 47.1299383,115.537545 C38.0616159,117.516187 32.5455705,141.635565 32.050396,144.914941 Z" id="path-72"></path>
        <linearGradient x1="49.2794595%" y1="100%" x2="51.0054243%" y2="2.697384%" id="linearGradient-74">
            <stop stop-color="#8EA9ED" offset="0%"></stop>
            <stop stop-color="#476FCF" offset="100%"></stop>
        </linearGradient>
        <path d="M45.4578533,106.824965 C43.7620307,106.835891 41.5776043,106.961541 38.8814369,106.975198 C31.3972246,107.012074 22.3138216,112.196481 20.4301791,113.681057 C18.5465367,115.166999 10.5878566,175.568135 10.5878566,175.568135 C9.70728099,182.491149 15.6140789,193.08941 20.7818465,204.360989 C25.9496141,215.631203 29.192383,241.545734 29.192383,241.545734 L29.192383,243.824965 C29.192383,243.824965 36.101794,242.74784 49.920616,240.593588 C49.6456913,238.945121 38.70367,195.90833 33.2364795,185.550441 C27.7679279,175.195284 30.7526301,172.61264 31.454913,169.374434 C32.1599179,166.134863 33.9885939,148.368512 41.85389,143.024311 C55.0720514,134.041738 50.1043528,112.144582 50.0009158,109.092119 C49.9383092,107.24835 48.6249313,106.845452 45.945096,106.824965 L45.4578533,106.824965 Z" id="path-75"></path>
        <linearGradient x1="50%" y1="0%" x2="50%" y2="100%" id="linearGradient-77">
            <stop stop-color="#90E9FF" offset="0%"></stop>
            <stop stop-color="#45C5F0" offset="100%"></stop>
        </linearGradient>
        <path d="M46.6820708,112.659869 C37.3710018,114.702686 31.7072993,139.585133 31.1988698,142.969916 L31.1988698,142.969916 C30.6904402,146.351784 30.5615222,174.113409 30.5615222,174.113409 L30.5615222,174.113409 C29.9545935,180.839261 34.0191329,188.784684 34.8085748,196.332325 L34.8085748,196.332325 C35.5951197,203.879967 34.7911926,238.824965 34.7911926,238.824965 L34.7911926,238.824965 L56.2437332,238.431555 C58.0355491,233.920455 51.0218285,204.757125 52.3921258,195.841291 L52.3921258,195.841291 C53.6204684,187.853613 50.9899611,177.454479 51.1797169,168.121922 L51.1797169,168.121922 C51.3694726,158.787908 50.6046555,148.907491 54.8835755,142.618761 L54.8835755,142.618761 C58.8090573,136.848749 59.4681326,126.239795 59.5,125.678822 L59.5,125.678822 L59.5,125.617625 C59.4753752,124.926972 59.0654448,115.056755 55.8468395,113.05765 L55.8468395,113.05765 C54.3722489,112.14115 53.0410615,111.824965 51.6939405,111.824965 L51.6939405,111.824965 C50.1295418,111.824965 48.5419669,112.251888 46.6820708,112.659869" id="path-78"></path>
        <linearGradient x1="50%" y1="0%" x2="50%" y2="100%" id="linearGradient-80">
            <stop stop-color="#8AE6FF" offset="0%"></stop>
            <stop stop-color="#6DDAFF" offset="100%"></stop>
        </linearGradient>
        <linearGradient x1="83.6501983%" y1="27.0070931%" x2="-21.9870149%" y2="120.140079%" id="linearGradient-81">
            <stop stop-color="#FBD572" offset="0%"></stop>
            <stop stop-color="#E52027" offset="100%"></stop>
        </linearGradient>
        <linearGradient x1="82.4009277%" y1="27.0070931%" x2="38.718914%" y2="64.4856856%" id="linearGradient-82">
            <stop stop-color="#EFAC00" offset="0%"></stop>
            <stop stop-color="#E52027" offset="100%"></stop>
        </linearGradient>
        <linearGradient x1="109.352834%" y1="62.971942%" x2="-16.109838%" y2="50%" id="linearGradient-83">
            <stop stop-color="#FFDE8A" offset="0%"></stop>
            <stop stop-color="#ED444A" offset="100%"></stop>
        </linearGradient>
        <linearGradient x1="50%" y1="0%" x2="169.980053%" y2="151.4524%" id="linearGradient-84">
            <stop stop-color="#A3EAEA" offset="0%"></stop>
            <stop stop-color="#52C2C3" offset="100%"></stop>
        </linearGradient>
        <linearGradient x1="72.5919641%" y1="36.3813949%" x2="40.9762268%" y2="50%" id="linearGradient-85">
            <stop stop-color="#8AE3E3" offset="0%"></stop>
            <stop stop-color="#52C2C3" offset="100%"></stop>
        </linearGradient>
        <linearGradient x1="62.3667428%" y1="65.7706452%" x2="35.3555311%" y2="11.3178076%" id="linearGradient-86">
            <stop stop-color="#BCFCFC" offset="0%"></stop>
            <stop stop-color="#52C2C3" offset="100%"></stop>
        </linearGradient>
        <linearGradient x1="24.2331602%" y1="21.6688433%" x2="123.479325%" y2="119.598935%" id="linearGradient-87">
            <stop stop-color="#AECBFC" offset="0%"></stop>
            <stop stop-color="#4356ED" offset="100%"></stop>
            <stop stop-color="#5487E2" offset="100%"></stop>
        </linearGradient>
        <linearGradient x1="83.7074481%" y1="27.0070931%" x2="38.2640206%" y2="64.4856856%" id="linearGradient-88">
            <stop stop-color="#AECBFC" offset="0%"></stop>
            <stop stop-color="#4356ED" offset="100%"></stop>
        </linearGradient>
        <linearGradient x1="67.4713371%" y1="66.1226299%" x2="47.9130826%" y2="33.8773701%" id="linearGradient-89">
            <stop stop-color="#D5E4FF" offset="0%"></stop>
            <stop stop-color="#7BA2E9" offset="100%"></stop>
        </linearGradient>
        <linearGradient x1="50%" y1="0%" x2="50%" y2="100%" id="linearGradient-90">
            <stop stop-color="#F8D600" offset="0%"></stop>
            <stop stop-color="#EFAC00" offset="100%"></stop>
        </linearGradient>
    </defs>
    <g id="页面-1" stroke="none" stroke-width="1" fill="none" fill-rule="evenodd">
        <g id="功能备份-7" transform="translate(-198.000000, -329.000000)">
            <g id="编组-4" transform="translate(198.000000, 329.000000)">
                <path d="M412.290614,522.414063 C584.327313,522.414063 723.790614,464.430255 723.790614,405.75 C723.790614,347.069745 584.327313,299.5 412.290614,299.5 C240.253914,299.5 100.790614,347.069745 100.790614,405.75 C100.790614,464.430255 240.253914,522.414063 412.290614,522.414063 Z" id="椭圆形" fill="url(#linearGradient-1)" opacity="0.108421689"></path>
                <path d="M412.5,439.375644 C532.621933,439.375644 630,408.371363 630,370.125644 C630,361.34597 630.046875,347.986055 630.140625,330.045898 L412.5,323 L195,327.183594 C194.919271,356.022565 194.919271,370.336582 195,370.125644 C195,408.371363 292.378067,439.375644 412.5,439.375644 Z" id="椭圆形备份" fill="url(#linearGradient-2)"></path>
                <ellipse id="椭圆形" fill="url(#linearGradient-3)" cx="412.5" cy="329.25" rx="217.5" ry="69.25"></ellipse>
                <path d="M412.508048,367.597398 C503.120789,367.597398 576.57693,344.209639 576.57693,315.359375 C576.57693,308.736518 576.612289,296.179998 576.683009,277.689814 L412.508048,272.374814 L248.439166,275.530664 C248.439166,282.849629 248.439166,296.125866 248.439166,315.359375 C248.439166,344.209639 321.895307,367.597398 412.508048,367.597398 Z" id="椭圆形备份-2" fill="url(#linearGradient-4)"></path>
                <ellipse id="椭圆形备份-3" fill="url(#linearGradient-5)" cx="412.475024" cy="277.359322" rx="164.068882" ry="52.2380233"></ellipse>
                <g id="编组-9" transform="translate(252.000000, 96.000000)">
                    <path d="M310.336,0.63525 C312.967292,0.63525 315.349479,1.70179167 317.073844,3.42615626 C318.798208,5.15052085 319.86475,7.53270835 319.86475,10.164 L319.86475,178.336 C319.86475,180.967292 318.798208,183.349479 317.073844,185.073844 C315.349479,186.798208 312.967292,187.86475 310.336,187.86475 L10.164,187.86475 C7.53270835,187.86475 5.15052085,186.798208 3.42615626,185.073844 C1.70179167,183.349479 0.63525,180.967292 0.63525,178.336 L0.63525,10.164 C0.63525,7.53270835 1.70179167,5.15052085 3.42615626,3.42615626 C5.15052085,1.70179167 7.53270835,0.63525 10.164,0.63525 Z" id="矩形备份-14" stroke="#306465" stroke-width="1.2705" fill="#FFFFFF"></path>
                    <path d="M9.7392072,1.27078652 L41.8838375,1.27078652 L41.8838375,1.27078652 L41.8838375,187.229213 L9.7392072,187.229213 C5.06135537,187.229213 1.2692072,183.437065 1.2692072,178.759213 L1.2692072,9.74078652 C1.2692072,5.06293469 5.06135537,1.27078652 9.7392072,1.27078652 Z" id="矩形备份-14" fill="url(#linearGradient-6)"></path>
                    <path d="M276.689755,43.2067416 L296.674597,43.2067416 C298.077952,43.2067416 299.215597,44.344386 299.215597,45.7477416 L299.215597,46.5960787 C299.215597,47.9994342 298.077952,49.1370787 296.674597,49.1370787 L276.689755,49.1370787 C275.286399,49.1370787 274.148755,47.9994342 274.148755,46.5960787 L274.148755,45.7477416 C274.148755,44.344386 275.286399,43.2067416 276.689755,43.2067416 Z" id="矩形备份-36" fill="url(#linearGradient-7)"></path>
                    <path d="M276.689755,59.3033708 L296.674597,59.3033708 C298.077952,59.3033708 299.215597,60.4410152 299.215597,61.8443708 L299.215597,62.6927079 C299.215597,64.0960634 298.077952,65.2337079 296.674597,65.2337079 L276.689755,65.2337079 C275.286399,65.2337079 274.148755,64.0960634 274.148755,62.6927079 L274.148755,61.8443708 C274.148755,60.4410152 275.286399,59.3033708 276.689755,59.3033708 Z" id="矩形备份-37" fill="url(#linearGradient-8)"></path>
                    <rect id="矩形备份-35" fill="url(#linearGradient-9)" x="260.187475" y="40.6651685" width="10.9997957" height="11.0134831" rx="1.2705"></rect>
                    <rect id="矩形备份-41" fill="url(#linearGradient-10)" x="57.1143239" y="30.4988764" width="9.73058851" height="9.74269663" rx="1.2705"></rect>
                    <rect id="矩形备份-38" fill="url(#linearGradient-11)" x="260.187475" y="56.7617978" width="10.9997957" height="11.0134831" rx="1.2705"></rect>
                    <rect id="矩形备份-42" fill="url(#linearGradient-12)" x="72.0844601" y="30.4988764" width="9.73058851" height="9.74269663" rx="1.2705"></rect>
                    <path d="M276.689755,75.4 L296.674597,75.4 C298.077952,75.4 299.215597,76.5376445 299.215597,77.941 L299.215597,78.7893371 C299.215597,80.1926926 298.077952,81.3303371 296.674597,81.3303371 L276.689755,81.3303371 C275.286399,81.3303371 274.148755,80.1926926 274.148755,78.7893371 L274.148755,77.941 C274.148755,76.5376445 275.286399,75.4 276.689755,75.4 Z" id="矩形备份-40" fill="url(#linearGradient-13)"></path>
                    <rect id="矩形备份-39" fill="url(#linearGradient-14)" x="260.187475" y="72.858427" width="10.9997957" height="11.0134831" rx="1.2705"></rect>
                    <rect id="矩形备份-43" fill="url(#linearGradient-15)" x="87.0545962" y="30.4988764" width="9.73058851" height="9.74269663" rx="1.2705"></rect>
                    <path d="M58.8083239,47.8662921 L91.3829182,47.8662921 L91.3829182,47.8662921 L91.3829182,56.7617978 L58.8083239,56.7617978 C57.8727535,56.7617978 57.1143239,56.0033681 57.1143239,55.0677978 L57.1143239,49.5602921 C57.1143239,48.6247218 57.8727535,47.8662921 58.8083239,47.8662921 Z" id="矩形备份-29" fill="url(#linearGradient-16)"></path>
                    <path d="M58.8083239,61.8449438 L117.173208,61.8449438 L117.173208,61.8449438 L117.173208,70.7404494 L58.8083239,70.7404494 C57.8727535,70.7404494 57.1143239,69.9820198 57.1143239,69.0464494 L57.1143239,63.5389438 C57.1143239,62.6033735 57.8727535,61.8449438 58.8083239,61.8449438 Z" id="矩形备份-31" fill="url(#linearGradient-17)"></path>
                    <path d="M91.3829182,47.8662921 L132.418894,47.8662921 C133.354464,47.8662921 134.112894,48.6247218 134.112894,49.5602921 L134.112894,55.0677978 C134.112894,56.0033681 133.354464,56.7617978 132.418894,56.7617978 L91.3829182,56.7617978 L91.3829182,56.7617978 L91.3829182,47.8662921 Z" id="矩形备份-30" fill="url(#linearGradient-18)"></path>
                    <path d="M114.863251,61.8449438 L132.418894,61.8449438 C133.354464,61.8449438 134.112894,62.6033735 134.112894,63.5389438 L134.112894,69.0464494 C134.112894,69.9820198 133.354464,70.7404494 132.418894,70.7404494 L114.863251,70.7404494 L114.863251,70.7404494 L114.863251,61.8449438 Z" id="矩形备份-32" fill="url(#linearGradient-19)"></path>
                    <path d="M74.0540093,75.8235955 L132.418894,75.8235955 C133.354464,75.8235955 134.112894,76.5820251 134.112894,77.5175955 L134.112894,83.0251011 C134.112894,83.9606715 133.354464,84.7191011 132.418894,84.7191011 L74.0540093,84.7191011 L74.0540093,84.7191011 L74.0540093,75.8235955 Z" id="矩形备份-34" fill="url(#linearGradient-20)"></path>
                    <path d="M58.8083239,75.8235955 L74.4390021,75.8235955 L74.4390021,75.8235955 L74.4390021,84.7191011 L58.8083239,84.7191011 C57.8727535,84.7191011 57.1143239,83.9606715 57.1143239,83.0251011 L57.1143239,77.5175955 C57.1143239,76.5820251 57.8727535,75.8235955 58.8083239,75.8235955 Z" id="矩形备份-33" fill="url(#linearGradient-21)"></path>
                    <g id="编组-7" transform="translate(153.000000, 16.000000)">
                        <path d="M39.9946458,80 C39.9946458,73.6064208 39.9946458,60.2086752 39.9946458,39.8067633 C39.9946458,39.8067633 45.4964305,27.7226249 56.5,3.55434825 C51.4681614,1.27132084 45.8798502,0 39.9946458,0 C17.9062129,0 0,17.90861 0,40 C0,62.09139 17.9062129,80 39.9946458,80 Z" id="椭圆形" fill="url(#linearGradient-22)"></path>
                        <path d="M73.7540963,49.5926531 L73.7540795,49.3985952 C73.7540795,49.3985952 79.2857443,37.2635789 90.3490738,12.9935464 C85.2887479,10.7003788 79.6689088,9.42316892 73.7506181,9.4226571 C59.1298676,9.42139267 46.3319315,17.2121916 39.2921989,28.8645084 C62.266786,42.5538996 73.7540851,49.4632812 73.7540963,49.5926531 Z" id="椭圆形" fill="url(#linearGradient-23)" transform="translate(64.820636, 29.507655) rotate(86.000000) translate(-64.820636, -29.507655) "></path>
                        <path d="M63.1801104,79.8751669 L63.1802002,79.6809086 C63.1802002,79.6809086 68.7128216,67.53033 79.7780645,43.2291729 C74.7242149,40.9364125 69.1108715,39.6609657 63.1986833,39.6636943 C53.6946096,39.6680921 44.959754,42.9748222 38.0779,48.499204 C37.4139489,49.0321882 36.7672457,49.5858146 36.1387637,50.159109 C54.166388,69.8403087 63.1801702,79.7456614 63.1801104,79.8751669 Z" id="椭圆形备份-4" fill="url(#linearGradient-24)" transform="translate(57.958414, 59.769431) rotate(156.000000) translate(-57.958414, -59.769431) "></path>
                    </g>
                    <path d="M41.9188232,172.403371 C63.5989425,138.697596 82.1966786,121.844709 97.7120314,121.844709 C120.985061,121.844709 126.056403,140.702922 134.535963,133.596869 C143.015523,126.490817 154.849889,106.470508 171.630526,108.227934 C188.411164,109.98536 198.341166,128.041747 206.457704,129.95616 C214.574242,131.870572 226.277797,121.844709 235.234664,121.844709 C244.19153,121.844709 248.764611,137.375896 254.264509,137.375896 C259.764406,137.375896 259.764406,131.065641 272.91921,130.395811 C281.689079,129.949258 295.190071,145.817321 313.422184,178 L41.9188232,172.403371 Z" id="路径-4" fill="url(#linearGradient-25)"></path>
                    <ellipse id="椭圆形" fill="url(#linearGradient-26)" cx="65.6910505" cy="141.738202" rx="2.11534533" ry="2.11797753"></ellipse>
                    <ellipse id="椭圆形备份-5" fill="url(#linearGradient-27)" cx="95.6136089" cy="121.995506" rx="2.11534533" ry="2.11797753"></ellipse>
                    <ellipse id="椭圆形备份-18" fill="url(#linearGradient-28)" cx="129.882203" cy="135.550562" rx="2.11534533" ry="2.11797753"></ellipse>
                    <ellipse id="椭圆形备份-19" fill="url(#linearGradient-29)" cx="170.073764" cy="108.016854" rx="2.11534533" ry="2.11797753"></ellipse>
                    <ellipse id="椭圆形备份-29" fill="url(#linearGradient-29)" cx="254.073764" cy="137.016854" rx="2.11534533" ry="2.11797753"></ellipse>
                    <ellipse id="椭圆形备份-20" fill="url(#linearGradient-30)" cx="206.457704" cy="130.04382" rx="2.11534533" ry="2.11797753"></ellipse>
                    <ellipse id="椭圆形备份-21" fill="url(#linearGradient-31)" cx="236.495608" cy="121.995506" rx="2.11534533" ry="2.11797753"></ellipse>
                    <ellipse id="椭圆形备份-22" fill="url(#linearGradient-27)" cx="272.879547" cy="130.891011" rx="2.11534533" ry="2.11797753"></ellipse>
                    <rect id="矩形" fill="#F4F9FF" x="57.1143239" y="150.376404" width="241.995506" height="27.1101124" rx="3.388"></rect>
                    <g id="编组-8" transform="translate(67.691051, 157.577528)">
                        <path d="M1.05898876,0 L15.6844653,0 C16.2693286,-1.07437653e-16 16.7434541,0.474125419 16.7434541,1.05898876 C16.7434541,1.64385211 16.2693286,2.11797753 15.6844653,2.11797753 L1.05898876,2.11797753 C0.474125419,2.11797753 7.16251023e-17,1.64385211 0,1.05898876 C-7.16251023e-17,0.474125419 0.474125419,3.29482258e-16 1.05898876,0 Z" id="矩形" fill="url(#linearGradient-32)"></path>
                        <path d="M1.05898876,6.35393258 L46.3247466,6.35393258 C46.9096099,6.35393258 47.3837354,6.828058 47.3837354,7.41292135 C47.3837354,7.99778469 46.9096099,8.47191011 46.3247466,8.47191011 L1.05898876,8.47191011 C0.474125419,8.47191011 7.16251023e-17,7.99778469 0,7.41292135 C-7.16251023e-17,6.828058 0.474125419,6.35393258 1.05898876,6.35393258 Z" id="矩形备份-25" fill="url(#linearGradient-33)"></path>
                        <rect id="矩形备份-26" fill="url(#linearGradient-34)" x="0" y="12.7078652" width="37.4688804" height="2.11797753" rx="1.05898876"></rect>
                        <path d="M21.3663039,0 L28.860753,0 C29.4456164,-3.29482258e-16 29.9197418,0.474125419 29.9197418,1.05898876 C29.9197418,1.64385211 29.4456164,2.11797753 28.860753,2.11797753 L21.3663039,2.11797753 C20.7814406,2.11797753 20.3073152,1.64385211 20.3073152,1.05898876 C20.3073152,0.474125419 20.7814406,1.07437653e-16 21.3663039,0 Z" id="矩形备份-24" fill="url(#linearGradient-35)"></path>
                    </g>
                    <g id="编组-8备份" transform="translate(140.035861, 157.577528)">
                        <rect id="矩形" fill="url(#linearGradient-36)" x="0" y="0" width="30.8840418" height="2.11797753" rx="1.05898876"></rect>
                        <path d="M1.05898876,6.35393258 L46.3247466,6.35393258 C46.9096099,6.35393258 47.3837354,6.828058 47.3837354,7.41292135 C47.3837354,7.99778469 46.9096099,8.47191011 46.3247466,8.47191011 L1.05898876,8.47191011 C0.474125419,8.47191011 7.16251023e-17,7.99778469 0,7.41292135 C-7.16251023e-17,6.828058 0.474125419,6.35393258 1.05898876,6.35393258 Z" id="矩形备份-25" fill="url(#linearGradient-33)"></path>
                        <path d="M1.05898876,12.7078652 L37.0172272,12.7078652 C37.6020905,12.7078652 38.0762159,13.1819906 38.0762159,13.7668539 C38.0762159,14.3517173 37.6020905,14.8258427 37.0172272,14.8258427 L1.05898876,14.8258427 C0.474125419,14.8258427 7.16251023e-17,14.3517173 0,13.7668539 C-7.16251023e-17,13.1819906 0.474125419,12.7078652 1.05898876,12.7078652 Z" id="矩形备份-26" fill="url(#linearGradient-37)"></path>
                        <path d="M34.0583759,0 L46.3247466,0 C46.9096099,-2.69252235e-15 47.3837354,0.474125419 47.3837354,1.05898876 C47.3837354,1.64385211 46.9096099,2.11797753 46.3247466,2.11797753 L34.0583759,2.11797753 C33.4735125,2.11797753 32.9993871,1.64385211 32.9993871,1.05898876 C32.9993871,0.474125419 33.4735125,3.29482258e-16 34.0583759,0 Z" id="矩形备份-24" fill="url(#linearGradient-38)"></path>
                    </g>
                    <g id="编组-8备份-2" transform="translate(212.380671, 157.577528)">
                        <rect id="矩形" fill="url(#linearGradient-36)" x="0" y="0" width="30.8840418" height="2.11797753" rx="1.05898876"></rect>
                        <path d="M1.05898876,6.35393258 L46.3247466,6.35393258 C46.9096099,6.35393258 47.3837354,6.828058 47.3837354,7.41292135 C47.3837354,7.99778469 46.9096099,8.47191011 46.3247466,8.47191011 L1.05898876,8.47191011 C0.474125419,8.47191011 7.16251023e-17,7.99778469 0,7.41292135 C-7.16251023e-17,6.828058 0.474125419,6.35393258 1.05898876,6.35393258 Z" id="矩形备份-25" fill="url(#linearGradient-33)"></path>
                        <path d="M1.05898876,12.7078652 L46.3247466,12.7078652 C46.9096099,12.7078652 47.3837354,13.1819906 47.3837354,13.7668539 C47.3837354,14.3517173 46.9096099,14.8258427 46.3247466,14.8258427 L1.05898876,14.8258427 C0.474125419,14.8258427 7.16251023e-17,14.3517173 0,13.7668539 C-7.16251023e-17,13.1819906 0.474125419,12.7078652 1.05898876,12.7078652 Z" id="矩形备份-26" fill="url(#linearGradient-33)"></path>
                    </g>
                    <ellipse id="椭圆形" fill="#FFFFFF" cx="20.2922055" cy="30.483748" rx="8.02320264" ry="8.0331862"></ellipse>
                    <ellipse id="椭圆形备份-23" fill="#FFFFFF" cx="20.2922055" cy="52.9343098" rx="8.02320264" ry="8.0331862"></ellipse>
                    <ellipse id="椭圆形备份-24" fill="#FFFFFF" cx="20.2922055" cy="74.9612761" rx="8.02320264" ry="8.0331862"></ellipse>
                    <ellipse id="椭圆形备份-25" fill="#FFFFFF" cx="20.2922055" cy="97.4118379" rx="8.02320264" ry="8.0331862"></ellipse>
                    <ellipse id="椭圆形备份-26" fill="#FFFFFF" cx="20.2922055" cy="119.8624" rx="8.02320264" ry="8.0331862"></ellipse>
                    <ellipse id="椭圆形备份-27" fill="#FFFFFF" cx="20.2922055" cy="141.889366" rx="8.02320264" ry="8.0331862"></ellipse>
                    <ellipse id="椭圆形备份-28" fill="#FFFFFF" cx="20.2922055" cy="164.339928" rx="8.02320264" ry="8.0331862"></ellipse>
                </g>
                <g id="编组-11" transform="translate(0.000000, 201.000000)">
                    <rect id="矩形备份-10" fill="url(#linearGradient-39)" x="0" y="0" width="141" height="71" rx="6"></rect>
                    <g id="编组-7备份" transform="translate(15.000000, 16.000000)" fill="#F6FBFC">
                        <path d="M25.5291838,38.2806212 C23.3566061,30.5046287 21.7172001,24.5448578 20.6109655,20.4013084 C26.0577318,16.1369738 31.18741,12.1084419 36,8.31571261 C32.3160037,2.24278948 23.6438651,0 20.6109655,0 C9.22784359,0 0,9.17831659 0,20.5003439 C0,31.8223712 11.9957682,41.8048082 25.5291838,38.2806212 Z" id="椭圆形"></path>
                    </g>
                    <path d="M69.75,16 L95.25,16 C96.2164983,16 97,16.7835017 97,17.75 L97,19.25 C97,20.2164983 96.2164983,21 95.25,21 L69.75,21 C68.7835017,21 68,20.2164983 68,19.25 L68,17.75 C68,16.7835017 68.7835017,16 69.75,16 Z" id="矩形" fill="#F6FBFC"></path>
                    <rect id="矩形备份-27" fill="#F6FBFC" x="68" y="27" width="58" height="5" rx="1.75"></rect>
                    <path d="M69.75,50 L119.25,50 C120.216498,50 121,50.7835017 121,51.75 L121,53.25 C121,54.2164983 120.216498,55 119.25,55 L69.75,55 C68.7835017,55 68,54.2164983 68,53.25 L68,51.75 C68,50.7835017 68.7835017,50 69.75,50 Z" id="矩形备份-44" fill="#F6FBFC"></path>
                    <path d="M69.75,39 L116.25,39 C117.216498,39 118,39.7835017 118,40.75 L118,42.25 C118,43.2164983 117.216498,44 116.25,44 L69.75,44 C68.7835017,44 68,43.2164983 68,42.25 L68,40.75 C68,39.7835017 68.7835017,39 69.75,39 Z" id="矩形备份-28" fill="#F6FBFC"></path>
                </g>
                <g id="编组-3" opacity="0.708844866" transform="translate(497.000000, 0.000000)">
                    <rect id="矩形备份-10" fill="url(#linearGradient-40)" x="0" y="0" width="117" height="59" rx="6"></rect>
                    <path d="M8.75,37 L24.25,37 C25.2164983,37 26,37.7835017 26,38.75 L26,42.25 C26,43.2164983 25.2164983,44 24.25,44 L8.75,44 C7.78350169,44 7,43.2164983 7,42.25 L7,38.75 C7,37.7835017 7.78350169,37 8.75,37 Z" id="矩形" fill="#F6FBFC" transform="translate(16.500000, 40.500000) rotate(90.000000) translate(-16.500000, -40.500000) "></path>
                    <path d="M32.75,27 L67.25,27 C68.2164983,27 69,27.7835017 69,28.75 L69,32.25 C69,33.2164983 68.2164983,34 67.25,34 L32.75,34 C31.7835017,34 31,33.2164983 31,32.25 L31,28.75 C31,27.7835017 31.7835017,27 32.75,27 Z" id="矩形备份-27" fill="#F6FBFC" transform="translate(50.000000, 30.500000) rotate(90.000000) translate(-50.000000, -30.500000) "></path>
                    <path d="M56.75,34 L77.25,34 C78.2164983,34 79,34.7835017 79,35.75 L79,39.25 C79,40.2164983 78.2164983,41 77.25,41 L56.75,41 C55.7835017,41 55,40.2164983 55,39.25 L55,35.75 C55,34.7835017 55.7835017,34 56.75,34 Z" id="矩形备份-44" fill="#F6FBFC" transform="translate(67.000000, 37.500000) rotate(90.000000) translate(-67.000000, -37.500000) "></path>
                    <path d="M79.75,40 L88.25,40 C89.2164983,40 90,40.7835017 90,41.75 L90,45.25 C90,46.2164983 89.2164983,47 88.25,47 L79.75,47 C78.7835017,47 78,46.2164983 78,45.25 L78,41.75 C78,40.7835017 78.7835017,40 79.75,40 Z" id="矩形备份-51" fill="#F6FBFC" transform="translate(84.000000, 43.500000) rotate(90.000000) translate(-84.000000, -43.500000) "></path>
                    <path d="M18.75,30 L48.25,30 C49.2164983,30 50,30.7835017 50,31.75 L50,35.25 C50,36.2164983 49.2164983,37 48.25,37 L18.75,37 C17.7835017,37 17,36.2164983 17,35.25 L17,31.75 C17,30.7835017 17.7835017,30 18.75,30 Z" id="矩形备份-28" fill="#F6FBFC" transform="translate(33.500000, 33.500000) rotate(90.000000) translate(-33.500000, -33.500000) "></path>
                    <path d="M90.75,34 L111.25,34 C112.216498,34 113,34.7835017 113,35.75 L113,39.25 C113,40.2164983 112.216498,41 111.25,41 L90.75,41 C89.7835017,41 89,40.2164983 89,39.25 L89,35.75 C89,34.7835017 89.7835017,34 90.75,34 Z" id="矩形备份-52" fill="#F6FBFC" transform="translate(101.000000, 37.500000) rotate(90.000000) translate(-101.000000, -37.500000) "></path>
                </g>
                <g id="编组" transform="translate(149.000000, 182.000000)">
                    <g transform="translate(13.000000, 0.500000)">
                        <path d="M94.7747709,17.775434 C92.95048,18.0900574 88.0674713,21.0944893 88.0674713,21.0944893 L89.0077055,25.8064549 C89.0077055,25.8064549 89.4319936,25.8950812 91.8949341,26.2392467 C94.3578746,26.5863664 98.3730885,23.8537218 98.5046622,23.6971487 C100.048065,21.8832635 97.6265189,19.1299394 97.6265189,19.1299394 C97.6265189,19.1299394 100.844899,18.3027605 101.802874,17.7399835 C102.443002,17.3633217 103.970143,15.7695252 103.358104,15.0974423 C103.358104,15.0974423 96.9819559,17.3928638 94.7747709,17.775434" id="Fill-1" fill="#FED6D6"></path>
                        <path d="M34.9749895,114.312382 L17.1194101,113.819014 C16.7232108,113.796872 17.9901616,138.988901 20.6127645,160.835286 C16.6226826,171.653605 24.7580737,200.405457 21.3312453,209.386256 C21.3312453,209.386256 30.1658986,226.693498 30.5310525,226.816098 C30.899163,226.940174 35.0548207,226.154354 35.0163835,224.448298 C34.9779462,222.740764 30.100851,215.449773 29.6085586,210.919492 C28.3105623,198.919489 32.6524928,165.957887 32.8712895,163.480782 C34.8360241,141.411353 36.2227217,131.408397 34.9749895,114.312382" id="Fill-3" fill="#F9B9A5"></path>
                        <path d="M38.4622827,226.172818 C36.6690373,225.756275 34.6762139,222.725255 34.6762139,222.725255 C34.6762139,222.725255 34.2400989,224.496304 31.6751519,223.695713 C28.0073516,222.552433 26.2155845,213.710482 22.334901,210.107822 C20.8358483,208.716389 22.1619334,207.005901 22.1619334,207.005901 C18.7646721,209.53766 20.0656251,214.415061 21.9490501,215.901029 C24.9087181,218.236332 26.691615,226.361888 29.8124238,227.846378 C32.5325982,229.138845 36.6572104,229.382568 39.0092742,228.292464 C40.3161406,227.683897 39.1896336,226.342685 38.4622827,226.172818" id="Fill-5" fill="#1F1F84"></path>
                        <path d="M3.88472689,171.990089 C-0.803138844,182.486399 5.42369512,211.77444 1.41587297,220.477544 C1.41587297,220.477544 8.92000621,238.301772 9.27628992,238.45096 C9.63405198,238.603101 13.8311036,238.127474 13.9050214,236.422894 C13.9804176,234.718315 9.76414728,227.180647 9.5734394,222.623778 C9.06488506,210.557305 15.5593014,178.00043 15.9421955,175.545481 C19.3498053,153.678416 22.6598435,143.402196 22.53714,126.254481 L3.49000594,124.829 C3.09528498,124.778853 2.70499909,150.001901 3.88472689,171.990089" id="Fill-7" fill="#F9B9A5"></path>
                        <g transform="translate(0.000000, 218.165874)">
                            <mask id="mask-42" fill="white">
                                <use xlink:href="#path-41"></use>
                            </mask>
                            <g id="Clip-10"></g>
                            <path d="M17.2296954,20.236341 C15.4689739,19.6853807 13.6786852,16.5125588 13.6786852,16.5125588 C13.6786852,16.5125588 13.1287369,18.2466803 10.6214457,17.2584969 C7.03643329,15.8449073 6.00158434,6.98966171 2.36630782,3.10487509 C0.964826667,1.60561333 2.40030999,0 2.40030999,0 C-1.15513532,2.27178777 -0.177942243,7.23190696 1.6034763,8.85672265 C4.40200353,11.4047291 5.47528973,19.5435786 8.49113524,21.2584977 C11.1211299,22.7518511 15.2191318,23.3028113 17.6347649,22.3899603 C18.9800685,21.8818361 17.9422628,20.4593838 17.2296954,20.236341" id="Fill-9" fill="#1F1F84" mask="url(#mask-42)"></path>
                        </g>
                        <path d="M0.543938816,236.058197 C0.543938816,236.058197 0.640031933,236.387591 0.999272354,236.202953 L2.09177717,225.454059 L0.162523061,224.238401 C0.49515308,228.507235 0.543938816,236.058197 0.543938816,236.058197" id="Fill-11" fill="#1F1F84"></path>
                        <path d="M21.4864727,224.992759 C21.4864727,224.992759 21.6047411,225.316245 21.9477196,225.103542 L22.3350488,214.298517 L20.3289202,213.23057 C20.9409594,217.465431 21.4864727,224.992759 21.4864727,224.992759" id="Fill-13" fill="#1F1F84"></path>
                        <path d="M26.2939374,5.51294993 C23.7186418,1.45977332 20.2208524,0.0580005073 18.0979337,0 C14.4404818,-0.101526852 14.9475578,19.6311212 14.0723713,22.9974439 C13.6539966,24.6060115 18.4808278,33.6872541 18.0240159,36.0993669 C16.6033161,43.5927215 29.5625817,47.4272865 27.2696521,42.0535779 C22.9720722,31.9797205 31.5021843,13.7167921 26.2939374,5.51294993" id="Fill-15" fill="#010080"></path>
                        <path d="M56.2183688,28.7411674 C50.8918534,30.2020245 32.0723861,33.5358508 32.0723861,33.5358508 C29.4690018,34.0986279 27.6920183,36.7160583 28.0719557,39.5166497 C28.0778691,39.5521002 28.0808258,39.5875508 28.0867393,39.6215242 C28.4947654,42.7071969 31.2252883,44.8135489 34.0918199,44.1946418 C34.0918199,44.1946418 54.6040044,40.7736662 60.9520635,38.2138429 C63.1089844,37.343828 58.9222812,27.9981835 56.2183688,28.7411674" id="Fill-17" fill="#FFCEBB"></path>
                        <path d="M89.2785403,20.3416088 C82.7102062,24.1584486 59.1407822,27.5749929 56.2269432,28.6089665 C53.341193,29.6296462 50.9625188,32.44944 53.1016994,37.0786876 C54.5194424,40.1466351 57.5471148,39.7020264 60.4890425,38.8999583 C66.5532574,37.2500318 86.6973313,26.4789808 89.5106421,25.9915361 C89.5106421,25.9915361 90.3991339,19.6916825 89.2785403,20.3416088" id="Fill-19" fill="#FFCEBB"></path>
                    </g>
                    <g transform="translate(31.500000, 32.500000)">
                        <mask id="mask-44" fill="white">
                            <use xlink:href="#path-43"></use>
                        </mask>
                        <g id="Clip-22"></g>
                        <path d="M7.09287111,1.65453224 C5.39620619,1.9108049 2.31988479,3.87106592 1.28700282,5.34126169 L1.28700282,5.34126169 C0.254120839,6.81295613 -0.181951811,8.62934478 0.0695713215,10.5596324 L0.0695713215,10.5596324 C0.111243793,10.8773505 0.173752501,11.1860767 0.251144234,11.4843121 L0.251144234,11.4843121 C1.12031293,14.7828859 4.16091506,16.9304807 7.33844103,16.4269274 L7.33844103,16.4269274 C11.194633,15.8169685 22.7557673,13.8761902 22.7557673,13.8761902 L22.7557673,13.8761902 C24.943572,8.23069843 21.6112626,0 21.6112626,0 L21.6112626,0 L7.09287111,1.65453224 Z" id="Fill-21" fill="url(#linearGradient-45)" mask="url(#mask-44)"></path>
                    </g>
                    <g transform="translate(29.500000, 105.000000)">
                        <mask id="mask-47" fill="white">
                            <use xlink:href="#path-46"></use>
                        </mask>
                        <g id="Clip-24"></g>
                        <path d="M3.15301222,52.0298155 C2.3506706,58.912262 3.98363674,96.198841 3.70229618,100.5 L3.70229618,100.5 C6.20756693,99.4964949 15.0720276,98.2443337 16.4742647,98.4056641 L16.4742647,98.4056641 C16.6394965,92.3624321 20.2076094,73.7087819 21.5517921,53.6342396 L21.5517921,53.6342396 C23.0478094,31.3084712 22.3258508,7.69797941 22.3258508,7.69797941 L22.3258508,7.69797941 L0.0404031004,0 C-0.505903712,0.679364074 4.69517532,38.8169983 3.15301222,52.0298155" id="Fill-23" fill="url(#linearGradient-48)" mask="url(#mask-47)"></path>
                    </g>
                    <g transform="translate(33.500000, 202.000000)">
                        <mask id="mask-50" fill="white">
                            <use xlink:href="#path-49"></use>
                        </mask>
                        <g id="Clip-26"></g>
                        <path d="M0.000917845101,3.24550841 C-0.0282127237,3.90145213 0.635964244,4.4473282 2.00801403,4.72100994 L2.00801403,4.72100994 C4.74628749,5.26986081 7.49621319,5.06459951 10.3277045,3.60397199 L10.3277045,3.60397199 C11.2030781,3.15180216 11.8119069,2.68624573 12.1527346,2.24448771 L12.1527346,2.24448771 C12.2576046,2.10913425 12.3391702,1.98121778 12.3959748,1.85330132 L12.3959748,1.85330132 C12.4600621,1.71199825 12.4921057,1.57366998 12.4979318,1.44277872 L12.4979318,1.44277872 C12.506671,1.23008041 12.4950188,0.980197086 12.3158658,0.855255424 L12.3158658,0.855255424 C11.4361226,0.240958919 10.3160522,0 9.10859017,0 L9.10859017,0 C5.04924541,0 0.0227657717,2.73681736 0.000917845101,3.24550841" id="Fill-25" fill="url(#linearGradient-51)" mask="url(#mask-50)"></path>
                    </g>
                    <g transform="translate(9.500000, 117.000000)">
                        <mask id="mask-53" fill="white">
                            <use xlink:href="#path-52"></use>
                        </mask>
                        <g id="Clip-28"></g>
                        <path d="M3.79090341,1.999941 C3.79090341,1.999941 6.84616986,37.698003 4.67633743,50.7639893 L4.67633743,50.7639893 C3.54915175,57.5690983 0.591772481,94.6402761 0,100 L0,100 C2.54358347,99.1357187 13.8792152,96.7891803 15.2659502,97.0207369 L15.2659502,97.0207369 C16.2240581,84.3426448 28.5,0 28.5,0 L28.5,0 L3.79090341,1.999941 Z" id="Fill-27" fill="url(#linearGradient-54)" mask="url(#mask-53)"></path>
                    </g>
                    <g transform="translate(13.000000, 213.000000)">
                        <mask id="mask-56" fill="white">
                            <use xlink:href="#path-55"></use>
                        </mask>
                        <g id="Clip-30"></g>
                        <path d="M6.1163948,0.291040227 C5.5876874,0.38155513 5.05750728,0.492958088 4.54058167,0.621071489 L4.54058167,0.621071489 C4.46694554,0.640567007 4.38889125,0.661455062 4.31672784,0.680950579 L4.31672784,0.680950579 C4.03396511,0.753362502 3.75709328,0.831344572 3.49200322,0.913504253 L3.49200322,0.913504253 C2.84842346,1.11263704 2.24755267,1.33405042 1.72179072,1.57913693 L1.72179072,1.57913693 C0.561285349,2.11944127 -0.0116037212,2.65417547 0.000178059159,3.08586193 L0.000178059159,3.08586193 C0.0134325621,3.51337078 0.611357916,3.83643936 1.79395412,3.954805 L1.79395412,3.954805 C4.15325564,4.18735867 7.95582526,3.49944541 10.2783087,2.42022926 L10.2783087,2.42022926 C10.99847,2.08741292 11.4918321,1.75598912 11.7539767,1.4538086 L11.7539767,1.4538086 C11.8364492,1.36050862 11.8968308,1.27277879 11.9365943,1.1864415 L11.9365943,1.1864415 C11.9822487,1.09035645 12.0013941,1.00123408 12,0.91489679 L12,0.91489679 C11.9955032,0.778428167 11.9365943,0.654492377 11.8114129,0.541696882 L11.8114129,0.541696882 C11.6980132,0.438649146 11.5360138,0.346741706 11.322469,0.270152173 L11.322469,0.270152173 C11.27976,0.253441729 11.2385238,0.240908896 11.189924,0.226983526 L11.189924,0.226983526 C10.9307248,0.143431308 10.5993622,0.0863372923 10.2061453,0.0445611831 L10.2061453,0.0445611831 C9.8983463,0.0153179067 9.56403828,0 9.21353031,0 L9.21353031,0 C8.26951516,0 7.19590042,0.104440273 6.1163948,0.291040227" id="Fill-29" fill="url(#linearGradient-57)" mask="url(#mask-56)"></path>
                    </g>
                    <g transform="translate(12.500000, 80.000000)">
                        <mask id="mask-59" fill="white">
                            <use xlink:href="#path-58"></use>
                        </mask>
                        <g id="Clip-32"></g>
                        <path d="M4.42519294,9.09344616 C3.99951421,19.2530612 -3.65380365,24.0641115 2.19000883,44.5 L2.19000883,44.5 L39.6349047,32.3955865 C40.794768,23.5044467 39.467303,12.5799071 31.6093034,2.39371163 L31.6093034,2.39371163 C30.3189184,0.723577236 27.4088778,0 23.9515359,0 L23.9515359,0 C15.8117281,0 4.6372907,4.00920856 4.42519294,9.09344616" id="Fill-31" fill="url(#linearGradient-60)" mask="url(#mask-59)"></path>
                    </g>
                    <g transform="translate(8.000000, 34.000000)">
                        <mask id="mask-62" fill="white">
                            <use xlink:href="#path-61"></use>
                        </mask>
                        <g id="Clip-34"></g>
                        <path d="M21.743602,0.275736233 C13.1322007,1.32117468 0.958020011,10.2405783 0.0603234332,19.600865 L0.0603234332,19.600865 C-0.476230843,25.1657235 2.67971066,29.8871536 5.03524289,34.5215866 L5.03524289,34.5215866 C10.8253121,45.904922 7.09301698,64.0887682 7.09301698,64.0887682 L7.09301698,64.0887682 C15.4847848,71.2328433 38.975249,63.5535155 42,58.9131843 L42,58.9131843 C40.0188765,46.7955353 34.9437216,33.9715887 38.5846257,30.6583303 L38.5846257,30.6583303 C46.0108906,23.9050044 36.1657093,17.0882738 34.3054579,9.68025867 L34.3054579,9.68025867 C32.6559957,3.11862104 32.1179674,0 25.6498351,0 L25.6498351,0 C24.5354531,0 23.2456592,0.0928950947 21.743602,0.275736233" id="Fill-33" fill="url(#linearGradient-63)" mask="url(#mask-62)"></path>
                    </g>
                    <g transform="translate(2.000000, 3.000000)">
                        <path d="M29.9437674,34.1814926 C29.8996374,34.1254639 29.8540364,34.072384 29.8040225,34.025202 C29.5260037,33.7214675 29.1729639,33.4398495 28.7552002,33.1818226 C27.5342711,32.4431285 25.9500053,32.0597743 24.3539715,32.0361832 C23.7832239,32.0229133 23.2095343,32.0597743 22.6505547,32.1379195 C22.5711208,32.1526639 22.4872738,32.1674083 22.4078399,32.1836272 C22.1033431,32.2352325 21.8032593,32.3001079 21.5134726,32.3797276 C20.8176901,32.5714047 20.1660375,32.8382783 19.59529,33.1818226 C18.3302309,33.9529545 17.6977014,34.961471 17.6977014,35.9699876 C17.6977014,36.9740808 18.3302309,37.9811229 19.59529,38.7507803 C22.1224661,40.2886206 28.7154833,45.4860195 31.2441304,43.9481792 C32.0267018,43.477833 30.5895359,35.3300809 30.46303,35.0145508 C30.3424081,34.7285096 30.1732432,34.4483661 29.9437674,34.1814926" id="Fill-35" fill="#FFCEBB"></path>
                        <path d="M29.3921428,14.3902399 C30.7925337,11.2673772 14.6174296,11.5991261 14.6174296,14.7278865 C14.6174296,15.689221 12.1946944,17.8890846 12.6124581,19.3222397 C13.5230064,22.4451023 17.6977014,25.4721264 17.6977014,29.1066196 L17.6977014,35.970135 L30.5762969,35.3656148 C30.5762969,35.3656148 25.8808683,22.2047687 29.3921428,14.3902399" id="Fill-37" fill="#FFCEBB"></path>
                        <path d="M25.5523943,0.874053813 C17.1809394,5.43302046 17.6648981,14.1941394 20.2994571,22.6677427 C22.5059555,29.7597962 29.6491263,30.7535684 32.2689754,29.9352545 C35.9920736,28.7748707 38.0058711,18.7575294 38,12.0783189 C37.9985161,10.6363171 37.1218008,7.23478541 36.804065,6.34717289 C36.0479716,4.23577566 31.4746359,-2.35201961 25.5523943,0.874053813" id="Fill-39" fill="#FFCEBB"></path>
                        <path d="M12.2214666,48.7920075 C12.1905756,48.7831609 12.1582136,48.7728398 12.1273226,48.7610443 C9.3294827,47.9073439 6.43014383,49.7076344 5.79761429,52.7449796 C5.79761429,52.7449796 0.416700247,74.0756945 0.0312985297,81.2871776 C-0.0981493752,83.734747 9.56484253,83.4575524 10.0252652,80.5293158 C10.9343425,74.7568855 15.706263,55.1085059 15.706263,55.1085059 C16.2784816,52.3498298 14.7648237,49.5601905 12.2214666,48.7920075" id="Fill-41" fill="#FED6D6"></path>
                        <path d="M10.0257065,80.5299055 C8.70916246,77.6178877 5.7921716,75.4696295 1.78369954,78.3270931 C-0.872924506,80.2202733 -0.071230095,83.3578803 1.04967108,86.3598389 C3.35913939,92.5406889 15.9258832,112.404337 16.7393456,115.308982 C16.7393456,115.308982 22.6865942,115.432835 21.9393267,114.331429 C17.558692,107.895501 11.3584315,83.4728866 10.0257065,80.5299055" id="Fill-43" fill="#FED6D6"></path>
                        <path d="M22.5090446,121.118716 C22.2030768,119.816786 22.6590865,118.364463 22.4296107,117.038942 C22.3060468,116.32089 21.98684,115.672137 21.7294152,114.999792 C21.3852014,114.094487 21.0395167,113.298289 20.4084582,112.583186 C19.3508099,111.381518 16.2205242,112.323685 16.6662369,114.569256 C17.0148637,116.313518 16.4014571,118.368886 16.6794759,120.166228 C16.8059818,120.97717 17.0707616,121.743878 17.3355414,122.507638 C17.6988782,123.553015 18.0651569,124.599867 18.4284936,125.646719 C18.5447025,125.981417 18.6653244,126.323487 18.8889163,126.591835 C19.0698491,126.810052 19.314035,126.97224 19.5538078,127.128531 C20.0495344,127.452908 22.4222557,128.303659 23.2092401,127.887867 C23.8123497,127.570863 23.2254211,125.544983 23.0253652,124.369855 C22.7958894,123.03991 22.8150124,122.425069 22.5090446,121.118716" id="Fill-45" fill="#FED6D6"></path>
                        <path d="M24.5496143,116.991907 C24.2598275,116.490598 22.4299049,114.466193 21.0751149,113.038935 C20.6955972,113.569734 19.4540741,114.545812 19.7276799,115.140011 C20.1822185,116.130835 20.6573512,117.146724 21.4384516,117.86625 C22.26074,118.624112 23.5052051,118.93227 24.6775912,121.356248 C24.9011831,121.819222 25.1983248,122.282196 25.6499215,122.484194 C26.1000472,122.684718 26.7178667,122.524004 26.8973286,122.035965 C26.285393,120.950777 25.6719865,119.858218 25.2336288,118.683089 C25.021805,118.112481 24.8496981,117.515333 24.5496143,116.991907" id="Fill-47" fill="#FED6D6"></path>
                    </g>
                    <g transform="translate(0.000000, 48.000000)">
                        <mask id="mask-65" fill="white">
                            <use xlink:href="#path-64"></use>
                        </mask>
                        <g id="Clip-50"></g>
                        <path d="M7.28185604,5.13431441 C6.57306733,8.26370329 1.29944597,22.3261098 0.0335434987,28.073367 L0.0335434987,28.073367 C0.0102088909,28.1791988 0,28.2820909 0,28.384983 L0,28.384983 L0,28.4026216 C0.0204177818,30.0180272 2.79431928,31.2703707 4.21189671,32.0464709 L4.21189671,32.0464709 C6.30180252,33.1885729 8.73151855,33.7236116 10.6347475,33.9705526 L10.6347475,33.9705526 C12.4708895,34.2086743 14.196192,32.9813188 14.6760099,31.0616467 L14.6760099,31.0616467 L19.8592096,10.3480027 C20.2661069,8.59295793 19.7454534,4.86679502 18.8820729,3.31900428 L18.8820729,3.31900428 C18.017234,1.76680387 16.6448674,0.671738244 14.9181064,0.205784145 L14.9181064,0.205784145 C14.6366327,0.129350034 14.3537006,0.0734943374 14.0722269,0.0411568289 L14.0722269,0.0411568289 C13.8432561,0.0146988675 13.6142852,0.00146988675 13.3882312,0 L13.3882312,0 C10.5428675,0 7.97460221,2.09164884 7.28185604,5.13431441" id="Fill-49" fill="url(#linearGradient-66)" mask="url(#mask-65)"></path>
                    </g>
                    <g transform="translate(1.000000, 0.000000)">
                        <mask id="mask-68" fill="white">
                            <use xlink:href="#path-67"></use>
                        </mask>
                        <g id="Clip-52"></g>
                        <path d="M30.5088636,14.2784574 C32.6668747,15.8079504 38.4347831,14.3123153 39.4183664,12.1571875 C40.4019496,10.0005877 32.1956355,0.863375974 31.0153356,0.70439114 C29.8350357,0.546878388 16.7915471,-2.17205669 12.6619654,4.24621994 C8.53091571,10.6630245 10.1545621,21.7345517 5.50823221,28.757854 C0.8619023,35.7796841 -2.99609296,63.3944666 3.27241532,64.5 C4.70081311,56.4226872 7.49741927,49.5922276 13.7189504,43.3329358 C16.8253119,40.2077062 24.8216971,37.1487202 24.3034808,35.1378565 C22.9132519,30.665672 23.7735203,26.3377515 20.7743253,25.1026749 C17.7751304,23.8661261 16.8899055,19.9209469 19.8391872,18.2633828 C23.2362196,16.3555648 22.789937,19.9474444 24.1904421,19.2894238 C25.5924153,18.6314033 29.2111209,13.3598784 30.5088636,14.2784574" id="Fill-51" fill="#010080" mask="url(#mask-68)"></path>
                    </g>
                </g>
                <g id="编组-2" transform="translate(613.500000, 167.175035)">
                    <path d="M54.4478523,241.195201 C55.2647096,238.933445 55.5,233.915352 55.5,233.915352 L48.5892693,232.824965 C48.5892693,232.824965 48.4338888,237.092513 46.7099057,240.130845 C44.9859225,243.167731 54.4478523,241.195201 54.4478523,241.195201" id="Fill-1" fill="#FED2F5"></path>
                    <path d="M52.7806129,67.2583045 C55.9949659,76.5050441 51.8378875,108.324965 51.8378875,108.324965 C51.8378875,108.324965 46.0537559,102.917601 45.1706606,91.8596142 C44.2889852,80.8016273 47.0333952,71.3907618 48.602238,68.4555448 C50.1710808,65.5203277 52.3901769,66.1299385 52.7806129,67.2583045" id="Fill-3" fill="#FED2F5"></path>
                    <path d="M30.0162671,43.7520979 C30.0162671,43.7520979 29.365054,35.4348825 25.9596013,34.4257602 C22.5541485,33.4151754 21.102335,33.4151754 21.102335,32.052129 C21.102335,30.6876201 21.102335,29.0232996 20.8006595,28.3651763 C20.5004343,27.7085156 20.7513471,23.8709258 20.8006595,23.5681891 C20.8528725,23.2654524 18.6483205,22.2563301 19.0486207,21.2969326 C19.4503713,20.3360727 22.5541485,18.5693774 22.7542987,15.337261 C22.9558991,12.1051446 23.905887,7.46171947 26.8602768,5.79447391 C29.8146666,4.12722835 37.9773106,4.7838891 41.2841386,6.44967217 C44.5880659,8.11691773 48.4445816,14.3281387 47.2915429,22.8120786 C46.1399545,31.294556 44.1877657,41.4793789 41.333451,42.8438878 C38.4791362,44.2069342 30.0162671,43.7520979 30.0162671,43.7520979" id="Fill-5" fill="#FED2F5"></path>
                    <path d="M30.0162671,43.7520979 C30.0162671,43.7520979 29.365054,35.4348825 25.9596013,34.4257602 C22.5541485,33.4151754 21.102335,33.4151754 21.102335,32.052129 C21.102335,30.6876201 21.102335,29.0232996 20.8006595,28.3651763 C20.5004343,27.7085156 20.7513471,23.8709258 20.8006595,23.5681891 C20.8528725,23.2654524 18.6483205,22.2563301 19.0486207,21.2969326 C19.4503713,20.3360727 22.5541485,18.5693774 22.7542987,15.337261 C22.9558991,12.1051446 23.905887,7.46171947 26.8602768,5.79447391 C29.8146666,4.12722835 37.9773106,4.7838891 41.2841386,6.44967217 C44.5880659,8.11691773 48.4445816,14.3281387 47.2915429,22.8120786 C46.1399545,31.294556 44.1877657,41.4793789 41.333451,42.8438878 C38.4791362,44.2069342 30.0162671,43.7520979 30.0162671,43.7520979" id="Fill-7" fill="#FFCEBB"></path>
                    <path d="M56.193032,239.324965 L47.7135704,239.77626 C47.4904651,241.406841 43.2529216,239.532117 40.4560845,242.523981 C38.2425295,244.89143 26.6468839,240.825336 26.1569271,242.523981 C24.3662514,248.734097 38.4335543,254.120044 41.2274749,253.227811 C44.0228538,252.334099 53.3174519,252.698094 55.2102019,252.229044 C57.7912246,251.586873 57.0067104,251.188846 56.363642,246.464305 L56.193032,239.324965 Z" id="Fill-9" fill="#141466"></path>
                    <g id="编组" transform="translate(15.500000, 241.324965)">
                        <path d="M26.394987,6.96872606 C25.6023187,2.40514831 25.1781972,0 25.1781972,0 L18.2957299,0.701201007 C18.2957299,0.701201007 19.2697467,4.85069503 18.4229663,8.21530562 C17.5776484,11.5784734 26.394987,6.96872606 26.394987,6.96872606" id="Fill-13" fill="#FED2F5"></path>
                        <g transform="translate(0.000000, 1.642773)">
                            <mask id="mask-70" fill="white">
                                <use xlink:href="#path-69"></use>
                            </mask>
                            <g id="Clip-16"></g>
                            <path d="M26.394987,0 C26.394987,0 25.9986528,3.0544085 21.7398885,3.43675061 C17.4825867,3.81764993 17.3568127,1.31439119 17.3568127,1.31439119 C17.7370595,2.87694405 14.1993017,4.0730256 8.77200964,1.97230818 C5.76952229,0.810853839 2.61493621,0.341943701 1.16999831,1.31439119 C-1.31330589,2.98659688 0.525041215,10.5367715 3.25111838,11.6203146 C7.57423217,13.3386899 23.2213886,12.5754485 25.1547974,12.8438094 C27.0911312,13.1121703 29.9429823,9.36521756 27.6454141,5.30517717 L26.394987,0 Z" id="Fill-15" fill="#1F1F84" mask="url(#mask-70)"></path>
                        </g>
                    </g>
                    <mask id="mask-73" fill="white">
                        <use xlink:href="#path-72"></use>
                    </mask>
                    <use id="Clip-2" fill="url(#linearGradient-71)" xlink:href="#path-72"></use>
                    <mask id="mask-76" fill="white">
                        <use xlink:href="#path-75"></use>
                    </mask>
                    <use id="Clip-2" fill="url(#linearGradient-74)" xlink:href="#path-75"></use>
                    <g id="编组">
                        <g transform="translate(30.500000, 111.824965)"></g>
                        <path d="M19.296769,85.9077436 C19.984663,88.9373156 17.3831994,89.564526 17.6921687,91.540968 C17.8903755,92.82602 15.9549449,123.127575 15.9549449,123.127575 C19.8126895,124.425754 23.1720024,124.893974 25.6641608,125.054423 C38.7195731,125.896052 46.9427626,122.592112 49.6375,120.688602 C52.8000636,118.455441 55.4813865,117.543968 57,115.790696 C57,115.790696 53.2411323,96.7934903 54.2452827,80.8083773 C55.2392312,64.9457891 55.6429317,45.93548 46.9917901,41.8746574 C40.3795546,38.7706954 32.430881,42.0817827 28.9651776,43.302655 C12.8040405,48.9942246 18.2751298,81.4005806 19.296769,85.9077436 Z" id="Fill-19" fill="url(#linearGradient-77)"></path>
                        <path d="M2.70919586,145.855345 C3.09540754,146.657591 4.36480518,146.886596 4.91133114,146.056636 C5.45931451,145.225217 6.25942852,144.832846 6.81907111,144.580503 C8.002482,144.048104 9.03578042,142.965801 9.7047282,139.543858 C10.1317472,137.351539 10.2978911,135.89291 10.2978911,135.89291 C10.2978911,135.89291 5.58465113,133.996693 5.46660152,133.987912 C5.35000932,133.979189 3.19451091,135.948338 2.58094443,137.153166 C1.96592054,138.359452 1.14248809,140.458419 1.07981978,143.037274 C1.01715147,145.617589 1.22118783,145.662806 1.81435068,145.528612 C2.40605612,145.394418 2.88262676,145.263142 3.05022806,143.654274 C3.21782935,142.048324 3.38251584,141.358392 3.38251584,141.358392 C3.38251584,141.358392 3.31693273,143.011019 3.11872598,143.810347 C3.11872598,143.810347 2.48475586,145.385667 2.70919586,145.855345" id="Fill-21" fill="#FED2F5"></path>
                        <path d="M10.040368,136.402701 C9.13677842,136.567526 5.31984108,134.172458 5.31984108,134.172458 C5.31984108,134.172458 12.3838714,110.253863 13.3719903,106.961737 C14.3586518,103.671071 19.5382606,87.7895206 18.6332136,79.2317454 C17.7281666,70.6739703 16.5768186,65.818195 16.5768186,65.818195 C16.5768186,65.818195 17.6115744,56.9672355 20.1605715,54.0047604 C22.7095686,51.0422853 22.5798597,48.4561364 25.7861454,49.1971199 C28.9924311,49.9381033 31.2951271,56.1095617 31.1304406,59.6481952 C30.9657542,63.1868287 30.0607072,87.8726624 29.4864905,91.163329 C28.9108165,94.4539956 22.5798597,109.019863 20.2771637,114.122146 L10.040368,136.402701 Z" id="Fill-23" fill="#FED2F5"></path>
                        <path d="M2.11428413,146.392266 C2.6112584,147.426434 4.24646409,147.722536 4.95184693,146.651902 C5.65722978,145.57981 6.6890708,145.075125 7.41194248,144.74985 C8.93492816,144.062836 10.2669941,142.666928 11.1297764,138.257494 C11.6806746,135.43213 11.8949128,133.551957 11.8949128,133.551957 C11.8949128,133.551957 5.81900146,131.107295 5.6674316,131.098503 C5.51877653,131.086874 2.73950983,133.62343 1.94814023,135.178328 C1.15677064,136.731768 0.0928667576,139.436066 0.0141670187,142.761739 C-0.0674475254,146.087413 0.197799743,146.145758 0.960021288,145.972181 C1.72224283,145.798604 2.33580932,145.630862 2.5529623,143.558151 C2.76865788,141.485439 2.98143866,140.597134 2.98143866,140.597134 C2.98143866,140.597134 2.89690931,142.726732 2.64186386,143.756524 C2.64186386,143.756524 1.82280361,145.786935 2.11428413,146.392266" id="Fill-25" fill="#FFCEBB"></path>
                        <path d="M10.040368,136.402701 C9.13677842,136.567526 5.31984108,134.172458 5.31984108,134.172458 C5.31984108,134.172458 12.3838714,110.253863 13.3719903,106.961737 C14.3586518,103.671071 19.5382606,87.7895206 18.6332136,79.2317454 C17.7281666,70.6739703 16.5768186,65.818195 16.5768186,65.818195 C16.5768186,65.818195 17.6115744,56.9672355 20.1605715,54.0047604 C22.7095686,51.0422853 22.5798597,48.4561364 25.7861454,49.1971199 C28.9924311,49.9381033 31.2951271,56.1095617 31.1304406,59.6481952 C30.9657542,63.1868287 30.0607072,87.8726624 29.4864905,91.163329 C28.9108165,94.4539956 22.5798597,109.019863 20.2771637,114.122146 L10.040368,136.402701 Z" id="Fill-27" fill="#FFCEBB"></path>
                        <mask id="mask-79" fill="white">
                            <use xlink:href="#path-78"></use>
                        </mask>
                        <g id="Clip-12"></g>
                        <path d="M33.25,14.431899 C33.25,14.431899 31.8791403,21.5537703 33.9122169,19.6867255 C36.4553844,17.354378 38.0085063,19.2389264 38.4063772,19.6867255 C39.3230835,20.7136002 39.075917,27.1237073 35.2006836,26.8742818 C32.7764949,26.7164621 36.5657676,27.8384254 39.1767578,30.8874654 C40.3785838,32.2909235 42.9414713,34.8440085 42.5854492,35.9699849 C41.4034957,39.7172023 45.6613272,38.8195594 50.2098807,31.9669213 C53.2543947,27.3809924 53.3680721,13.8915933 51.6250186,10.8095106 C48.5644732,5.39653916 44.8912411,2.43313899 41.9516602,1.80738724 C34.6209252,0.249571685 28.1958148,-2.23354808 25.0755159,4.14649428 C24.8379593,4.63221767 20.7747209,5.32506634 20.5808864,5.8953902 C12.9511719,17.4485005 31.1134478,12.3985704 33.25,14.431899 Z" id="Fill-31" fill="#341278"></path>
                        <path d="M27.2218327,48.4990201 C29.9428033,49.9605662 34.7813798,52.3585519 33.7772295,66.6326933 C32.7745365,80.9053761 32.5734149,87.7886454 31.0926939,92.0843072 C29.6134303,96.3814276 16.9486019,128.26997 15.8395186,127.984079 C14.7318926,127.698188 5.85339617,126.995129 6.4378146,125.475238 C7.02223303,123.955346 17.1162032,92.7421488 18.2034256,87.2474941 C19.2877331,81.7528394 13.5062171,64.6679203 16.4268518,56.7183934 C19.3474866,48.7688664 24.4994047,47.0374741 27.2218327,48.4990201" id="Fill-33" fill="url(#linearGradient-80)"></path>
                    </g>
                </g>
                <g id="编组-15" transform="translate(293.918823, 334.614000) scale(-1, 1) translate(-293.918823, -334.614000) translate(256.036865, 295.329000)">
                    <polygon id="Fill-370" fill="#745143" points="65.1948812 64.2359 65.1948812 77.8841348 63.3058812 78.5699 63.3058812 65.3329"></polygon>
                    <polygon id="Fill-372" fill="#A08174" points="63.3061812 65.333 63.3061812 78.57 61.4051812 77.9268594 61.4051812 64.236"></polygon>
                    <polygon id="Fill-374" fill="#52C2C3" points="75.763916 62.9312539 63.3355812 67.951 63.3385812 34.759"></polygon>
                    <polygon id="Fill-376" fill="#78DCDD" points="63.3383812 34.7593 63.3353812 67.9513 50.9511719 63.5960488"></polygon>
                    <polygon id="Fill-380" fill="#745143" points="22.9536812 50.1413983 22.9536812 72.2683983 19.7956812 73.2345 19.7966812 51.1065"></polygon>
                    <polygon id="Fill-382" fill="#A08174" points="19.7968812 51.107 19.7958812 73.234 16.6188812 72.2683983 16.6198812 49.273"></polygon>
                    <polygon id="Fill-384" fill="#52C2C3" points="39.6928711 47.7418008 19.8463812 55.4831 19.8513812 9.99999997e-05"></polygon>
                    <polygon id="Fill-386" fill="#78DCDD" points="19.8510812 0 19.8460812 55.483 0 47.3794961"></polygon>
                </g>
                <g id="编组-5" transform="translate(565.422184, 421.676927)">
                    <polygon id="Fill-436" fill="url(#linearGradient-81)" points="33.5303496 9.5502479 33.5849915 28.9597189 16.6931882 38.712473 16.6385463 19.303002"></polygon>
                    <polygon id="Fill-438" fill="url(#linearGradient-82)" points="16.6931882 38.7122247 0.223617903 29.1407823 0.168148079 9.73213925 16.6385463 19.3027537"></polygon>
                    <polygon id="Fill-440" fill="url(#linearGradient-83)" points="16.5614681 19.4318245 0 9.80739607 16.9870127 0 33.5484808 9.62442844"></polygon>
                </g>
                <g id="编组-5备份" transform="translate(565.422184, 398.676927)">
                    <polygon id="Fill-436" fill="url(#linearGradient-81)" points="33.5303496 9.5502479 33.5849915 28.9597189 16.6931882 38.712473 16.6385463 19.303002"></polygon>
                    <polygon id="Fill-438" fill="url(#linearGradient-82)" points="16.6931882 38.7122247 0.223617903 29.1407823 0.168148079 9.73213925 16.6385463 19.3027537"></polygon>
                    <polygon id="Fill-440" fill="url(#linearGradient-83)" points="16.5614681 19.4318245 0 9.80739607 16.9870127 0 33.5484808 9.62442844"></polygon>
                </g>
                <g id="编组-5备份-2" transform="translate(186.000000, 460.000000)">
                    <polygon id="Fill-436" fill="url(#linearGradient-84)" points="16.9723414 4.6872415 17 14.2133689 8.44973266 19 8.4220741 9.47387263"></polygon>
                    <polygon id="Fill-438" fill="url(#linearGradient-85)" points="8.44973266 18.9998781 0.11319057 14.3022344 0.0851129391 4.77651339 8.4220741 9.47375073"></polygon>
                    <polygon id="Fill-440" fill="url(#linearGradient-86)" points="8.38305876 9.53709842 0 4.81344927 8.59846029 0 16.9815191 4.72364915"></polygon>
                </g>
                <g id="编组-6备份-2" transform="translate(535.000000, 437.000000)">
                    <polygon id="Fill-442" fill="url(#linearGradient-87)" points="21.9640258 6.17740605 22 18.7051398 10.8790778 25 10.8431036 12.4722663"></polygon>
                    <polygon id="Fill-444" fill="url(#linearGradient-88)" points="10.8791323 24.9998397 0.0361921892 18.8220061 0.000218025237 6.29480679 10.8431581 12.472106"></polygon>
                    <polygon id="Fill-446" fill="url(#linearGradient-89)" points="10.8429401 12.4721594 0 6.29432586 11.1214673 0 21.9638623 6.17729917"></polygon>
                </g>
                <g id="编组-10" transform="translate(681.000000, 277.000000)">
                    <rect id="矩形备份-45" fill="url(#linearGradient-90)" x="0" y="0" width="127" height="53.3574219" rx="6"></rect>
                    <rect id="矩形备份-45" fill="#FFFCF5" x="4" y="4" width="119" height="45" rx="4"></rect>
                    <rect id="矩形" fill="#F2D280" x="11" y="10" width="31" height="32" rx="2"></rect>
                    <path d="M28.8123077,30.125 C30.9753846,30.9592021 32.7061538,32.4485766 34.0046154,34.5912189 C35.3030769,36.7338613 35.9676923,39.2021852 36,42 L16,42 C16.0323077,39.2021852 16.6969231,36.7338613 17.9953846,34.5912189 C19.2938462,32.4485766 21.0246154,30.9592021 23.1876923,30.125 L26,35.3340016 L28.8123077,30.125 Z M32.5625,23.25 C32.5221154,25.0134615 31.9105769,26.4846154 30.7298077,27.6673077 C29.5490385,28.85 28.0759615,29.4596154 26.3125,29.5 C24.5490385,29.4596154 23.0778846,28.8480769 21.8951923,27.6673077 C20.7125,26.4865385 20.1028846,25.0134615 20.0625,23.25 C20.1028846,21.4865385 20.7144231,20.0153846 21.8951923,18.8326923 C23.0759615,17.65 24.5490385,17.0403846 26.3125,17 C28.0759615,17.0403846 29.5471154,17.6519231 30.7298077,18.8326923 C31.9125,20.0134615 32.5221154,21.4865385 32.5625,23.25 Z" id="形状" fill="#FFF8E7" fill-rule="nonzero"></path>
                    <path d="M49,9 L90,9 C90.5522847,9 91,9.44771525 91,10 L91,11 C91,11.5522847 90.5522847,12 90,12 L49,12 C48.4477153,12 48,11.5522847 48,11 L48,10 C48,9.44771525 48.4477153,9 49,9 Z" id="矩形" fill="#F2D280"></path>
                    <path d="M49,15 L101,15 C101.552285,15 102,15.4477153 102,16 L102,17 C102,17.5522847 101.552285,18 101,18 L49,18 C48.4477153,18 48,17.5522847 48,17 L48,16 C48,15.4477153 48.4477153,15 49,15 Z" id="矩形备份-46" fill="#F2D280"></path>
                    <rect id="矩形备份-47" fill="#F2D280" x="48" y="21" width="68" height="3" rx="1"></rect>
                    <rect id="矩形备份-48" fill="#F2D280" x="48" y="26" width="68" height="3" rx="1"></rect>
                    <path d="M49,32 L97,32 C97.5522847,32 98,32.4477153 98,33 L98,34 C98,34.5522847 97.5522847,35 97,35 L49,35 C48.4477153,35 48,34.5522847 48,34 L48,33 C48,32.4477153 48.4477153,32 49,32 Z" id="矩形备份-49" fill="#F2D280"></path>
                    <rect id="矩形备份-50" fill="#F2D280" x="48" y="38" width="68" height="3" rx="1"></rect>
                </g>
            </g>
        </g>
    </g>
</svg>